<svg xmlns="http://www.w3.org/2000/svg" version="1.1" xmlns:xlink="http://www.w3.org/1999/xlink" xmlns:svgjs="http://svgjs.dev/svgjs" width="2000" height="272" viewBox="0 0 2000 272"><g transform="matrix(1,0,0,1,-1.2121212121212466,-1.1050255792958126)"><svg viewBox="0 0 396 54" data-background-color="#ffffff" preserveAspectRatio="xMidYMid meet" height="272" width="2000" xmlns="http://www.w3.org/2000/svg" xmlns:xlink="http://www.w3.org/1999/xlink"><g id="tight-bounds" transform="matrix(1,0,0,1,0.2400000000000091,0.21938007824255124)"><svg viewBox="0 0 395.52 53.56123984351489" height="53.56123984351489" width="395.52"><g><svg viewBox="0 0 395.52 53.56123984351489" height="53.56123984351489" width="395.52"><g><svg viewBox="0 0 395.52 53.56123984351489" height="53.56123984351489" width="395.52"><g id="textblocktransform"><svg viewBox="0 0 395.52 53.56123984351489" height="53.56123984351489" width="395.52" id="textblock"><g><svg viewBox="0 0 395.52 53.56123984351489" height="53.56123984351489" width="395.52"><g transform="matrix(1,0,0,1,0,0)"><svg width="395.52" viewBox="2.15 -34.6 332.27000000000004 45" height="53.56123984351489" data-palette-color="#00a0bc"><path d="M17.1-34.6L17.1-34.6Q23.05-34.6 27.25-32.15 31.45-29.7 31.45-26.95L31.45-26.95Q31.45-26.2 31.13-25.68 30.8-25.15 30.33-24.93 29.85-24.7 29.3-24.7L29.3-24.7Q28.4-24.7 26.6-25.63 24.8-26.55 22.6-27.48 20.4-28.4 18.55-28.4L18.55-28.4Q15.6-28.4 15.6-26L15.6-26Q15.6-25.25 16.07-24.58 16.55-23.9 17.6-23.18 18.65-22.45 19.65-21.9 20.65-21.35 22.4-20.43 24.15-19.5 25.35-18.8L25.35-18.8Q29.2-16.6 30.75-14.6 32.3-12.6 32.3-10L32.3-10Q32.3 0.35 18.35 0.35L18.35 0.35Q15.6 0.35 13.03-0.2 10.45-0.75 8.53-1.65 6.6-2.55 5.13-3.65 3.65-4.75 2.9-5.9 2.15-7.05 2.15-8.05L2.15-8.05Q2.15-9.15 2.88-9.93 3.6-10.7 5-10.7L5-10.7Q6.05-10.7 10.05-9.38 14.05-8.05 16.5-8.05L16.5-8.05Q18.75-8.05 18.75-9.6L18.75-9.6Q18.75-10.05 18.57-10.43 18.4-10.8 17.98-11.18 17.55-11.55 17.03-11.88 16.5-12.2 15.58-12.7 14.65-13.2 13.73-13.7 12.8-14.2 11.3-15 9.8-15.8 8.4-16.6L8.4-16.6Q6.55-17.65 5.23-19.2 3.9-20.75 3.3-22.28 2.7-23.8 2.7-25.1L2.7-25.1Q2.7-29.3 6.45-31.95 10.2-34.6 17.1-34.6ZM52.15-11.85L52.15-11.85Q52.15-14.45 51.5-16.43 50.85-18.4 49.6-18.4L49.6-18.4Q48.75-18.4 48.1-17.4 47.45-16.4 47.15-14.95 46.85-13.5 46.85-11.85L46.85-11.85Q46.85-9.3 47.55-7.38 48.25-5.45 49.55-5.45 50.85-5.45 51.5-7.35 52.15-9.25 52.15-11.85ZM49.55 0.35L49.55 0.35Q45.65 0.35 42.52-1.05 39.4-2.45 37.52-5.25 35.65-8.05 35.65-11.8L35.65-11.8Q35.65-17.5 39.55-20.85 43.45-24.2 49.55-24.2 55.65-24.2 59.5-20.85 63.35-17.5 63.35-11.8L63.35-11.8Q63.35-6.15 59.42-2.9 55.5 0.35 49.55 0.35ZM82.34-18.7L82.34-18.7Q82.34-19.85 81.05-19.85L81.05-19.85Q80.09-19.85 79.34-18.8 78.59-17.75 78.2-16.18 77.8-14.6 77.8-12.9L77.8-12.9Q77.8-10.4 79.32-8.85 80.84-7.3 83.45-7.3L83.45-7.3Q86-7.3 87.84-7.9L87.84-7.9Q88.59-8.1 89.67-8.65 90.75-9.2 91.2-9.2L91.2-9.2Q91.9-9.2 92.34-8.95 92.8-8.7 92.97-8.35 93.15-8 93.15-7.6L93.15-7.6Q93.15-6.9 92.67-5.9 92.2-4.9 91.2-3.8 90.2-2.7 88.87-1.78 87.55-0.85 85.59-0.25 83.65 0.35 81.5 0.35L81.5 0.35Q75.3 0.35 71.3-2.98 67.3-6.3 67.3-12.1L67.3-12.1Q67.3-15.8 69.12-18.57 70.95-21.35 74.15-22.78 77.34-24.2 81.5-24.2L81.5-24.2Q85.45-24.2 88.02-23.28 90.59-22.35 91.7-20.8 92.8-19.25 92.8-17.1L92.8-17.1Q92.8-16.15 92.42-15.15 92.05-14.15 91.27-13.15 90.5-12.15 89-11.53 87.5-10.9 85.5-10.9L85.5-10.9Q84.59-10.9 84.02-11 83.45-11.1 82.82-11.43 82.2-11.75 81.9-12.5 81.59-13.25 81.59-14.4L81.59-14.4Q81.59-15.4 81.97-16.82 82.34-18.25 82.34-18.7ZM97.34-30.8L97.34-30.8Q97.34-32.45 98.77-33.52 100.19-34.6 102.79-34.6L102.79-34.6Q108.24-34.6 108.24-30.8L108.24-30.8Q108.24-28.7 106.87-27.85 105.49-27 102.79-27L102.79-27Q100.44-27 98.89-27.9 97.34-28.8 97.34-30.8ZM108.19-18.35L108.19-5.35Q108.19-2.35 106.94-1.18 105.69 0 102.54 0L102.54 0Q99.59 0 98.52-1.38 97.44-2.75 97.44-5.9L97.44-5.9 97.44-18.2Q97.44-20.75 98.82-22.3 100.19-23.85 102.49-23.85L102.49-23.85Q105.19-23.85 106.69-22.68 108.19-21.5 108.19-18.35L108.19-18.35ZM121.69 0.3L121.69 0.3Q117.74 0.3 115.14-2.93 112.54-6.15 112.54-11.75L112.54-11.75Q112.54-17.45 115.12-20.83 117.69-24.2 121.69-24.2L121.69-24.2Q125.74-24.2 129.19-21.35L129.19-21.35Q130.54-23.85 133.54-23.85L133.54-23.85Q136.24-23.85 137.74-22.68 139.24-21.5 139.24-18.35L139.24-18.35 139.24-5.35Q139.24-2.35 137.99-1.18 136.74 0 133.59 0L133.59 0Q130.29 0 129.24-1.85L129.24-1.85Q126.04 0.3 121.69 0.3ZM128.49-7.2L128.49-16.55Q127.64-18 126.29-18L126.29-18Q124.99-18 124.19-16.1 123.39-14.2 123.39-11.75L123.39-11.75Q123.39-9.45 124.14-7.65 124.89-5.85 126.24-5.85L126.24-5.85Q127.64-5.85 128.49-7.2L128.49-7.2ZM154.94-28.7L154.94-7.55Q154.94-3.5 153.59-1.75 152.24 0 149.44 0L149.44 0Q146.64 0 145.34-1.58 144.04-3.15 144.04-7.15L144.04-7.15 143.94-28.25Q143.94-29.55 144.21-30.55 144.49-31.55 144.96-32.25 145.44-32.95 146.14-33.4 146.84-33.85 147.66-34.05 148.49-34.25 149.44-34.25L149.44-34.25Q152.19-34.25 153.56-33.15 154.94-32.05 154.94-28.7L154.94-28.7ZM174.34-34.6L174.34-34.6Q180.29-34.6 184.49-32.15 188.69-29.7 188.69-26.95L188.69-26.95Q188.69-26.2 188.36-25.68 188.04-25.15 187.56-24.93 187.09-24.7 186.54-24.7L186.54-24.7Q185.64-24.7 183.84-25.63 182.04-26.55 179.84-27.48 177.64-28.4 175.79-28.4L175.79-28.4Q172.84-28.4 172.84-26L172.84-26Q172.84-25.25 173.31-24.58 173.79-23.9 174.84-23.18 175.89-22.45 176.89-21.9 177.89-21.35 179.64-20.43 181.39-19.5 182.59-18.8L182.59-18.8Q186.44-16.6 187.99-14.6 189.54-12.6 189.54-10L189.54-10Q189.54 0.35 175.59 0.35L175.59 0.35Q172.84 0.35 170.26-0.2 167.69-0.75 165.76-1.65 163.84-2.55 162.36-3.65 160.89-4.75 160.14-5.9 159.39-7.05 159.39-8.05L159.39-8.05Q159.39-9.15 160.11-9.93 160.84-10.7 162.24-10.7L162.24-10.7Q163.29-10.7 167.29-9.38 171.29-8.05 173.74-8.05L173.74-8.05Q175.99-8.05 175.99-9.6L175.99-9.6Q175.99-10.05 175.81-10.43 175.64-10.8 175.21-11.18 174.79-11.55 174.26-11.88 173.74-12.2 172.81-12.7 171.89-13.2 170.96-13.7 170.04-14.2 168.54-15 167.04-15.8 165.64-16.6L165.64-16.6Q163.79-17.65 162.46-19.2 161.14-20.75 160.54-22.28 159.94-23.8 159.94-25.1L159.94-25.1Q159.94-29.3 163.69-31.95 167.44-34.6 174.34-34.6ZM205.28-1.4L205.28 2.9Q205.28 6.95 203.93 8.68 202.58 10.4 199.78 10.4L199.78 10.4Q196.98 10.4 195.68 8.83 194.38 7.25 194.38 3.25L194.38 3.25 194.28-17.85Q194.28-20.95 195.78-22.4 197.28-23.85 199.78-23.85L199.78-23.85Q201.73-23.85 202.93-23.38 204.13-22.9 204.73-21.5L204.73-21.5Q208.18-24.2 212.13-24.2L212.13-24.2Q216.13-24.2 218.68-20.85 221.23-17.5 221.23-11.75L221.23-11.75Q221.23-6.15 218.63-2.93 216.03 0.3 212.08 0.3L212.08 0.3Q208.28 0.3 205.28-1.4L205.28-1.4ZM205.28-16.55L205.28-7.25Q206.13-5.85 207.53-5.85L207.53-5.85Q208.88-5.85 209.63-7.65 210.38-9.45 210.38-11.75L210.38-11.75Q210.38-14.2 209.58-16.1 208.78-18 207.48-18L207.48-18Q206.13-18 205.28-16.55L205.28-16.55ZM240.98-4.15L240.93-13.4Q240.93-16.25 238.73-16.25L238.73-16.25Q238.33-16.25 238.01-16.15 237.68-16.05 237.41-15.9 237.13-15.75 236.91-15.48 236.68-15.2 236.51-14.88 236.33-14.55 236.26-14.1 236.18-13.65 236.18-13.1L236.18-13.1 236.18-7.6Q236.18-3.5 234.86-1.78 233.53-0.05 230.83-0.05L230.83-0.05Q228.03-0.05 226.73-1.63 225.43-3.2 225.43-7.2L225.43-7.2 225.33-28.5Q225.33-31.6 226.83-33.05 228.33-34.5 230.83-34.5L230.83-34.5Q233.48-34.5 234.83-33.4 236.18-32.3 236.18-28.95L236.18-28.95 236.18-21.7Q239.88-23.95 245.18-23.95L245.18-23.95Q247.58-23.95 249.03-22.73 250.48-21.5 251.18-18.85 251.88-16.2 251.88-11.9L251.88-11.9Q251.88-9.7 251.81-8.1 251.73-6.5 251.58-5.18 251.43-3.85 251.13-3 250.83-2.15 250.43-1.55 250.03-0.95 249.41-0.63 248.78-0.3 248.03-0.15 247.28 0 246.23 0L246.23 0Q243.43 0 242.21-1.03 240.98-2.05 240.98-4.15L240.98-4.15ZM270.23 0.3L270.23 0.3Q264.13 0.3 260.15-2.85 256.18-6 256.18-11.45L256.18-11.45Q256.18-17.35 260.1-20.78 264.03-24.2 270.23-24.2L270.23-24.2Q276.08-24.2 278.8-22.13 281.53-20.05 281.53-16.45L281.53-16.45Q281.53-15.75 281.35-15.1 281.18-14.45 280.8-13.83 280.43-13.2 279.8-12.68 279.18-12.15 278.38-11.73 277.58-11.3 276.48-11.08 275.38-10.85 274.13-10.85L274.13-10.85 267.08-10.8Q267.58-9.2 268.88-8.28 270.18-7.35 272.18-7.35L272.18-7.35Q274.33-7.35 276.58-7.9L276.58-7.9Q277.53-8.15 278.65-8.7 279.78-9.25 280.28-9.25L280.28-9.25Q281.13-9.25 281.6-8.75 282.08-8.25 282.08-7.5L282.08-7.5Q282.08-6.6 281.28-5.33 280.48-4.05 279.05-2.78 277.63-1.5 275.28-0.6 272.93 0.3 270.23 0.3ZM266.83-14L266.83-14Q270.28-14.05 270.58-14.05L270.58-14.05Q271.33-14.05 271.68-14.95L271.68-14.95Q271.93-15.6 271.93-16.75L271.93-16.75Q271.93-19.9 270.03-19.9L270.03-19.9Q269.33-19.9 268.65-19.15 267.98-18.4 267.48-17.03 266.98-15.65 266.83-14ZM296.98-15.4L296.98-5.35Q296.98-2.35 295.73-1.18 294.48 0 291.28 0L291.28 0Q288.32 0 287.28-1.38 286.23-2.75 286.23-5.9L286.23-5.9 286.23-18.2Q286.23-19.9 286.82-21.18 287.43-22.45 288.57-23.15 289.73-23.85 291.28-23.85L291.28-23.85Q295.07-23.85 296.28-21.65L296.28-21.65Q299.18-23.85 301.88-23.85L301.88-23.85Q307.13-23.85 307.13-18.85L307.13-18.85Q307.13-16.85 305.98-15.6 304.82-14.35 302.98-14.35L302.98-14.35Q301.88-14.35 301.2-14.8 300.53-15.25 299.95-15.7 299.38-16.15 298.63-16.15L298.63-16.15Q297.53-16.15 296.98-15.4L296.98-15.4ZM322.57 0.3L322.57 0.3Q316.47 0.3 312.5-2.85 308.52-6 308.52-11.45L308.52-11.45Q308.52-17.35 312.45-20.78 316.37-24.2 322.57-24.2L322.57-24.2Q328.42-24.2 331.15-22.13 333.87-20.05 333.87-16.45L333.87-16.45Q333.87-15.75 333.7-15.1 333.52-14.45 333.15-13.83 332.77-13.2 332.15-12.68 331.52-12.15 330.72-11.73 329.92-11.3 328.82-11.08 327.72-10.85 326.47-10.85L326.47-10.85 319.42-10.8Q319.92-9.2 321.22-8.28 322.52-7.35 324.52-7.35L324.52-7.35Q326.67-7.35 328.92-7.9L328.92-7.9Q329.87-8.15 331-8.7 332.12-9.25 332.62-9.25L332.62-9.25Q333.47-9.25 333.95-8.75 334.42-8.25 334.42-7.5L334.42-7.5Q334.42-6.6 333.62-5.33 332.82-4.05 331.4-2.78 329.97-1.5 327.62-0.6 325.27 0.3 322.57 0.3ZM319.17-14L319.17-14Q322.62-14.05 322.92-14.05L322.92-14.05Q323.67-14.05 324.02-14.95L324.02-14.95Q324.27-15.6 324.27-16.75L324.27-16.75Q324.27-19.9 322.37-19.9L322.37-19.9Q321.67-19.9 321-19.15 320.32-18.4 319.82-17.03 319.32-15.65 319.17-14Z" opacity="1" transform="matrix(1,0,0,1,0,0)" fill="#00a0bc" class="wordmark-text-0" data-fill-palette-color="primary" id="text-0"></path></svg></g></svg></g></svg></g></svg></g></svg></g><defs></defs></svg><rect width="395.52" height="53.56123984351489" fill="none" stroke="none" visibility="hidden"></rect></g></svg></g></svg>