<svg xmlns="http://www.w3.org/2000/svg" viewBox="0 0 500 500"><g id="freepik--Posts--inject-234"><g id="freepik--post-window--inject-234"><path d="M207.41,46.37l-82,47.39a6.4,6.4,0,0,0-2.89,5V215.52c0,1.85,1.3,2.59,2.89,1.67l82-47.4c1.6-.92,2.89-2.09,2.89-3.93V48C210.3,46.19,209,45.44,207.41,46.37Z" style="fill:#fafafa"></path><path d="M124.1,217.94a1.84,1.84,0,0,1-.93-.24,2.35,2.35,0,0,1-1-2.18V98.77a6.72,6.72,0,0,1,3.07-5.32l82-47.39h0a2.11,2.11,0,0,1,3.43,2V165.86c0,2.22-1.76,3.48-3.08,4.24l-82,47.4A3,3,0,0,1,124.1,217.94ZM208.7,46.32a2.36,2.36,0,0,0-1.12.35h0l-82,47.39a6.06,6.06,0,0,0-2.72,4.71V215.52a1.42,1.42,0,0,0,2.36,1.36l82-47.4c1.88-1.08,2.71-2.19,2.71-3.62V48a1.69,1.69,0,0,0-.66-1.56A1.14,1.14,0,0,0,208.7,46.32Z" style="fill:#e6e6e6"></path><path d="M134.44,97c3.19-1.85,5.78-.35,5.78,3.34a12.78,12.78,0,0,1-5.78,10c-3.2,1.84-5.79.35-5.79-3.34A12.77,12.77,0,0,1,134.44,97Z" style="fill:#00A0BC"></path><path d="M134.37,99.22c.86-.49,1.55-.09,1.55.89a3.42,3.42,0,0,1-1.55,2.69c-.86.49-1.55.09-1.55-.9A3.41,3.41,0,0,1,134.37,99.22Z" style="fill:#fff"></path><path d="M137.42,104.88c0-1.62-1.14-2.35-2.54-1.53l-.88.5a5.64,5.64,0,0,0-2.55,4.42v.43s.6,1.24,3-.17a6.67,6.67,0,0,0,3-3.27Z" style="fill:#fff"></path><path d="M146.52,95.36,174,79.49c1.19-.69,2.16-.14,2.16,1.22A4.75,4.75,0,0,1,174,84.43l-27.5,15.93c-1.19.69-2.15.14-2.15-1.24v0A4.77,4.77,0,0,1,146.52,95.36Z" style="fill:#455a64"></path><path d="M135.48,192.69l-1.27-.34c-1.21-.32-2.66-1-2.66-2.59a4.08,4.08,0,0,1,2-3.11,1.24,1.24,0,0,1,2,.93,4.9,4.9,0,0,1,2-3.19c1.09-.63,2-.26,2,.83,0,1.56-1.44,3.94-2.65,5.66Z" style="fill:#00A0BC"></path><path d="M146.05,186.67a2,2,0,0,1-1-.26,2.52,2.52,0,0,1-1.09-2.33,7.41,7.41,0,0,1,3.34-5.79A2.25,2.25,0,0,1,151,180.4a5.55,5.55,0,0,1-.21,1.47l1.08,1.49a.31.31,0,0,1-.25.49H149.9a6.72,6.72,0,0,1-2.27,2.34A3.22,3.22,0,0,1,146.05,186.67Zm2.84-8.23a2.49,2.49,0,0,0-1.26.4,6.69,6.69,0,0,0-3,5.24,1.64,1.64,0,0,0,2.71,1.57,6.11,6.11,0,0,0,2.14-2.27.33.33,0,0,1,.27-.15H151l-.77-1.06a.3.3,0,0,1-.09-.31,5.32,5.32,0,0,0,.23-1.46,2,2,0,0,0-.78-1.79A1.33,1.33,0,0,0,148.89,178.44Z" style="fill:#455a64"></path><path d="M157,180.72h0a.31.31,0,0,1-.27-.29l-.28-4.51-2.67-.72a.31.31,0,0,1-.08-.57l6.37-3.68a.32.32,0,0,1,.36,0,.29.29,0,0,1,.09.34l-3.18,9.2A.34.34,0,0,1,157,180.72Zm-2.37-5.94,2.16.59a.31.31,0,0,1,.24.28l.19,3.17,2.4-6.92Z" style="fill:#455a64"></path><path d="M156.73,176a.33.33,0,0,1-.19-.06.32.32,0,0,1-.06-.44L160,171a.32.32,0,0,1,.44-.06.31.31,0,0,1,0,.44L157,175.86A.3.3,0,0,1,156.73,176Z" style="fill:#455a64"></path><path d="M191.58,161.13h-.07a.31.31,0,0,1-.24-.3v-7.36a.33.33,0,0,1,.15-.27l4.66-2.7a.31.31,0,0,1,.31,0,.32.32,0,0,1,.16.27v7.36a.32.32,0,0,1-.2.29.31.31,0,0,1-.34-.07l-2-2L191.87,161A.33.33,0,0,1,191.58,161.13Zm.31-7.49v5.75l1.72-3.73a.33.33,0,0,1,.23-.18.3.3,0,0,1,.28.09l1.8,1.79v-6.05Z" style="fill:#455a64"></path><path d="M142.59,200a.37.37,0,0,1-.05.17.45.45,0,0,1-.12.12l-.47.27a.1.1,0,0,1-.16-.09v-4.67a.35.35,0,0,1,0-.17.45.45,0,0,1,.12-.12l.47-.27a.11.11,0,0,1,.12,0,.11.11,0,0,1,.05.1Z" style="fill:#455a64"></path><path d="M144.1,194.23a.11.11,0,0,1,.12,0,.1.1,0,0,1,.05.1v.56a.37.37,0,0,1-.05.16.3.3,0,0,1-.12.13l-.53.3a.1.1,0,0,1-.16-.09v-.56a.32.32,0,0,1,0-.16.51.51,0,0,1,.12-.13Zm.14,4.78a.33.33,0,0,1-.05.16.3.3,0,0,1-.12.13l-.47.27a.11.11,0,0,1-.11,0s-.05-.06-.05-.11v-3.32a.27.27,0,0,1,.05-.16.32.32,0,0,1,.11-.12l.47-.27a.11.11,0,0,1,.12,0,.1.1,0,0,1,.05.1Z" style="fill:#455a64"></path><path d="M145.89,196.83v1.23a.37.37,0,0,1,0,.16.23.23,0,0,1-.12.12l-.47.27a.12.12,0,0,1-.11,0s0-.06,0-.11v-4.67a.25.25,0,0,1,0-.16.36.36,0,0,1,.11-.13l.47-.27a.11.11,0,0,1,.12,0,.12.12,0,0,1,0,.11v2.24l1-1.56a.91.91,0,0,1,.1-.13.44.44,0,0,1,.14-.13l.63-.36s.07,0,.1,0a.11.11,0,0,1,.05.1s0,0,0,.07l-.06.11-1.44,2.17,1.57.83.05,0a.14.14,0,0,1,0,.06.3.3,0,0,1,0,.15.36.36,0,0,1-.1.11l-.6.34a.27.27,0,0,1-.16.05l-.09,0Z" style="fill:#455a64"></path><path d="M148.18,195.07a3.35,3.35,0,0,1,.11-.81,3.5,3.5,0,0,1,.3-.78,3.28,3.28,0,0,1,.48-.69,2.31,2.31,0,0,1,.62-.51,1.49,1.49,0,0,1,.63-.22.77.77,0,0,1,.48.12.83.83,0,0,1,.3.4,1.73,1.73,0,0,1,.11.63v.32a.41.41,0,0,1-.05.17.34.34,0,0,1-.12.12L149,195a.44.44,0,0,0,.06.25.28.28,0,0,0,.16.12.45.45,0,0,0,.23,0,1.12,1.12,0,0,0,.26-.11A1.77,1.77,0,0,0,150,195a1.5,1.5,0,0,0,.21-.24l.11-.14.11-.09.5-.28a.13.13,0,0,1,.12,0,.1.1,0,0,1,0,.11.83.83,0,0,1-.09.31,2.63,2.63,0,0,1-.27.47,4.66,4.66,0,0,1-.44.51,2.84,2.84,0,0,1-.61.45,1.54,1.54,0,0,1-.62.23.75.75,0,0,1-.48-.12.91.91,0,0,1-.3-.44A2.1,2.1,0,0,1,148.18,195.07Zm1.51-1.94a1.22,1.22,0,0,0-.3.24,1.08,1.08,0,0,0-.21.28,1.28,1.28,0,0,0-.14.29,1.58,1.58,0,0,0-.06.26l1.4-.81a1.33,1.33,0,0,0,0-.19.25.25,0,0,0-.11-.15.26.26,0,0,0-.2,0A1,1,0,0,0,149.69,193.13Z" style="fill:#455a64"></path><path d="M153.63,192.72a.1.1,0,0,0,0-.1.23.23,0,0,0-.15,0l-.29.08-.45.15a1.19,1.19,0,0,1-.45.08.5.5,0,0,1-.29-.08.42.42,0,0,1-.15-.24,1.35,1.35,0,0,1,0-.37,1.71,1.71,0,0,1,.08-.47,2.4,2.4,0,0,1,.25-.51,3.58,3.58,0,0,1,.4-.49,3.2,3.2,0,0,1,.54-.41,2.35,2.35,0,0,1,.54-.23,1,1,0,0,1,.4,0,.43.43,0,0,1,.36.43.25.25,0,0,1,0,.16.51.51,0,0,1-.12.13l-.48.27a.17.17,0,0,1-.14,0l-.1,0h-.14a.85.85,0,0,0-.28.12,1.37,1.37,0,0,0-.33.25.46.46,0,0,0-.14.31.16.16,0,0,0,0,.11.17.17,0,0,0,.13,0,1.36,1.36,0,0,0,.27-.06l.44-.14a.94.94,0,0,1,.77,0,.68.68,0,0,1,.23.59,1.24,1.24,0,0,1-.1.47,2.8,2.8,0,0,1-.26.52,3.27,3.27,0,0,1-.43.5,3.48,3.48,0,0,1-.58.43,1.79,1.79,0,0,1-.58.24,1,1,0,0,1-.42,0,.44.44,0,0,1-.26-.17.43.43,0,0,1-.1-.29.24.24,0,0,1,0-.16.51.51,0,0,1,.12-.13l.48-.28a.21.21,0,0,1,.14,0l.1.06a.37.37,0,0,0,.16,0,1,1,0,0,0,.32-.13l.19-.13.18-.15a1,1,0,0,0,.14-.16A.32.32,0,0,0,153.63,192.72Z" style="fill:#455a64"></path><path d="M131.67,202.7a.14.14,0,0,1,0-.13.3.3,0,0,1,.05-.16l1-1.84a.57.57,0,0,1,.08-.13.18.18,0,0,1,.08-.09l.37-.22a.07.07,0,0,1,.09,0s0,.06,0,.12V205a.32.32,0,0,1,0,.16.2.2,0,0,1-.09.11l-.38.22s-.07,0-.09,0a.12.12,0,0,1,0-.11v-3.61l-.67,1.2a.3.3,0,0,1-.09.1.08.08,0,0,1-.09,0Z" style="fill:#455a64"></path><path d="M134.18,199.8a.41.41,0,0,1,0-.16.26.26,0,0,1,.09-.11l1.79-1a.07.07,0,0,1,.09,0,.21.21,0,0,1,0,.12v.52a.45.45,0,0,1,0,.16.35.35,0,0,1-.09.11l-1.34.77-.05,1a1.42,1.42,0,0,1,.26-.24l.2-.13a1.23,1.23,0,0,1,.49-.18.59.59,0,0,1,.4.1.78.78,0,0,1,.26.38,2,2,0,0,1,.09.67,3.76,3.76,0,0,1-.09.85,3.4,3.4,0,0,1-.27.7,2,2,0,0,1-.4.54,2.11,2.11,0,0,1-.48.38,1.45,1.45,0,0,1-.56.21.6.6,0,0,1-.39-.09A.73.73,0,0,1,134,204a1.78,1.78,0,0,1-.09-.49.35.35,0,0,1,0-.17.18.18,0,0,1,.09-.1l.38-.23a.1.1,0,0,1,.09,0,.19.19,0,0,1,0,.1.5.5,0,0,0,.09.22.24.24,0,0,0,.14.09.37.37,0,0,0,.18,0l.21-.1a1.21,1.21,0,0,0,.44-.48,1.53,1.53,0,0,0,.16-.72.55.55,0,0,0-.16-.45.4.4,0,0,0-.44,0,1,1,0,0,0-.22.16l-.14.16-.09.13a.48.48,0,0,1-.11.09l-.44.25a.08.08,0,0,1-.09,0,.19.19,0,0,1,0-.12Z" style="fill:#455a64"></path><path d="M136.83,201.44a2.66,2.66,0,0,1,.1-.77q.09-.34.21-.69l.9-2.47s0-.08.05-.13a.24.24,0,0,1,.1-.1l.43-.25a.06.06,0,0,1,.09,0,.16.16,0,0,1,0,.11v.07s0,0,0,0l-.59,1.64a1.15,1.15,0,0,1,.52-.16.62.62,0,0,1,.4.13.88.88,0,0,1,.26.41,2.22,2.22,0,0,1,.09.67,3.48,3.48,0,0,1-.09.79,2.82,2.82,0,0,1-.27.72,2.92,2.92,0,0,1-.4.61,2.13,2.13,0,0,1-.53.43,1.06,1.06,0,0,1-.52.17.62.62,0,0,1-.4-.13.9.9,0,0,1-.27-.42A2.2,2.2,0,0,1,136.83,201.44Zm1.93-1.11a.7.7,0,0,0-.17-.53c-.11-.1-.27-.1-.48,0a1.22,1.22,0,0,0-.47.53,1.65,1.65,0,0,0-.17.72.72.72,0,0,0,.17.53c.11.11.27.11.47,0a1.15,1.15,0,0,0,.48-.54A1.69,1.69,0,0,0,138.76,200.33Z" style="fill:#455a64"></path><path d="M202.29,138.75a3.4,3.4,0,0,1-1.54,2.67l-67.45,39c-.85.49-1.54.09-1.54-.89V118.49a3.43,3.43,0,0,1,1.54-2.67l67.45-39c.85-.49,1.54-.1,1.54.89Z" style="fill:#00A0BC"></path><path d="M202.29,138.75a3.4,3.4,0,0,1-1.54,2.67l-67.45,39c-.85.49-1.54.09-1.54-.89V118.49a3.43,3.43,0,0,1,1.54-2.67l67.45-39c.85-.49,1.54-.1,1.54.89Z" style="fill:#fff;opacity:0.7000000000000001"></path><path d="M157.48,132.56a.34.34,0,0,1-.45,0,1.63,1.63,0,0,1-.31-.42l-6.24-10.84V135.8a1.51,1.51,0,0,1-.15.65.9.9,0,0,1-.37.45l-.78.45a.29.29,0,0,1-.37,0,.66.66,0,0,1-.15-.48V117.78a1.57,1.57,0,0,1,.15-.65,1,1,0,0,1,.37-.44l.67-.39a.34.34,0,0,1,.45,0,1.94,1.94,0,0,1,.32.42l6.23,10.84V113.06a1.54,1.54,0,0,1,.15-.65,1,1,0,0,1,.37-.45l.78-.45a.3.3,0,0,1,.37,0,.66.66,0,0,1,.15.48v19.06a1.58,1.58,0,0,1-.15.66,1,1,0,0,1-.37.44Z" style="fill:#fff"></path><path d="M170.23,122.54a.29.29,0,0,1,.37,0,.63.63,0,0,1,.15.47v1.06a1.51,1.51,0,0,1-.15.65,1,1,0,0,1-.37.45l-7.74,4.47a.28.28,0,0,1-.37,0,.62.62,0,0,1-.15-.47V110.1a1.54,1.54,0,0,1,.15-.65,1,1,0,0,1,.37-.45l7.59-4.38a.27.27,0,0,1,.36,0,.63.63,0,0,1,.16.47v1.06a1.52,1.52,0,0,1-.16.65.94.94,0,0,1-.36.45l-6.29,3.63v6.23l5.87-3.39a.27.27,0,0,1,.36,0,.63.63,0,0,1,.15.47v1.06a1.54,1.54,0,0,1-.15.65.94.94,0,0,1-.36.45l-5.87,3.39v6.46Z" style="fill:#fff"></path><path d="M180.07,103.75a1.51,1.51,0,0,1,.17.43l2.11,10.48,2-17.46a1.84,1.84,0,0,1,.23-.75,1.15,1.15,0,0,1,.36-.39l.77-.44a.23.23,0,0,1,.3,0,.54.54,0,0,1,.12.39c0,.06,0,.14,0,.24l-2.36,19.61a5.36,5.36,0,0,1-.29,1.3,1.43,1.43,0,0,1-.65.78l-.76.44c-.3.17-.52.15-.66-.05a2.32,2.32,0,0,1-.32-.92l-1.77-8.84-1.76,10.88a6.53,6.53,0,0,1-.33,1.29,1.48,1.48,0,0,1-.65.81l-.77.44c-.3.18-.52.17-.65,0a2.57,2.57,0,0,1-.28-1l-2.36-16.89a.94.94,0,0,1,0-.22,1.28,1.28,0,0,1,.12-.53.74.74,0,0,1,.3-.36l.77-.45a.39.39,0,0,1,.36,0c.12,0,.19.21.23.49l2,15.19,2.11-12.91a3.82,3.82,0,0,1,.17-.63,1.1,1.1,0,0,1,.48-.6l.65-.37C179.82,103.57,180,103.59,180.07,103.75Z" style="fill:#fff"></path><path d="M148.6,143.08a6.32,6.32,0,0,1,2.21-.84,2.33,2.33,0,0,1,1.67.33,3,3,0,0,1,1.06,1.56,8.65,8.65,0,0,1,.38,2.79,13.55,13.55,0,0,1-.38,3.26,11.46,11.46,0,0,1-1.06,2.77,10.31,10.31,0,0,1-3.88,4l-2.45,1.41v6a1.57,1.57,0,0,1-.15.65,1,1,0,0,1-.37.44l-2.51,1.45a.27.27,0,0,1-.36,0,.62.62,0,0,1-.16-.48V147.34a1.45,1.45,0,0,1,.16-.65,1,1,0,0,1,.36-.44Zm-2.45,10.66,2.36-1.36a3.73,3.73,0,0,0,1.33-1.32,3.91,3.91,0,0,0,.53-2.09c0-.83-.18-1.32-.53-1.48a1.45,1.45,0,0,0-1.33.22l-2.36,1.36Z" style="fill:#fff"></path><path d="M155.32,146.91a15.81,15.81,0,0,1,.47-3.38,15,15,0,0,1,1.16-3.22,13.39,13.39,0,0,1,1.85-2.77,9.4,9.4,0,0,1,2.5-2.08,5.09,5.09,0,0,1,2.49-.81,2.8,2.8,0,0,1,1.85.65,3.93,3.93,0,0,1,1.17,1.86,9.91,9.91,0,0,1,.47,2.84c0,.84,0,1.71,0,2.64s0,1.8,0,2.62a16.47,16.47,0,0,1-.47,3.38,14.81,14.81,0,0,1-1.17,3.23,12.58,12.58,0,0,1-1.85,2.78,9.77,9.77,0,0,1-2.49,2.06,5.28,5.28,0,0,1-2.5.83,2.72,2.72,0,0,1-1.85-.65,4.17,4.17,0,0,1-1.16-1.88,9.58,9.58,0,0,1-.47-2.84c0-.8,0-1.65,0-2.58S155.29,147.77,155.32,146.91Zm8.41.25c0-.36,0-.76,0-1.2s0-.89,0-1.34,0-.89,0-1.31,0-.78,0-1.11a4.8,4.8,0,0,0-.2-1.24,1.86,1.86,0,0,0-.46-.81,1.08,1.08,0,0,0-.74-.3,2,2,0,0,0-1,.33,4.12,4.12,0,0,0-1,.86,5.51,5.51,0,0,0-.74,1.15,7.15,7.15,0,0,0-.46,1.35,9.83,9.83,0,0,0-.2,1.47c0,.35,0,.74-.05,1.17v2.64c0,.43,0,.81.05,1.15a3.28,3.28,0,0,0,.66,2.07c.39.42,1,.41,1.78,0a4.17,4.17,0,0,0,1.76-2A8,8,0,0,0,163.73,147.16Z" style="fill:#fff"></path><path d="M174.51,127.83a5.06,5.06,0,0,1,2.25-.75,3.3,3.3,0,0,1,1.78.37,3,3,0,0,1,1.16,1.22,3.76,3.76,0,0,1,.45,1.72,1.25,1.25,0,0,1-.13.53.74.74,0,0,1-.28.35l-2.51,1.45a.65.65,0,0,1-.43.13.57.57,0,0,1-.33-.16l-.19-.19a.92.92,0,0,0-.35-.22,1.19,1.19,0,0,0-.58-.05,2.17,2.17,0,0,0-.84.32,4.82,4.82,0,0,0-.7.48,4.13,4.13,0,0,0-.6.58,2.89,2.89,0,0,0-.42.7,2.13,2.13,0,0,0-.16.84.91.91,0,0,0,.18.63.85.85,0,0,0,.61.19,5.48,5.48,0,0,0,1.15-.17l1.76-.46a5.89,5.89,0,0,1,1.84-.24,2.21,2.21,0,0,1,1.31.5,2.62,2.62,0,0,1,.79,1.32,8.17,8.17,0,0,1,.26,2.25,10,10,0,0,1-.44,2.94,12.31,12.31,0,0,1-3.12,5.11A11.46,11.46,0,0,1,174.6,149a5.81,5.81,0,0,1-2.37.84,3.23,3.23,0,0,1-1.85-.33,2.91,2.91,0,0,1-1.22-1.26,4.19,4.19,0,0,1-.46-1.95,1.28,1.28,0,0,1,.12-.53.81.81,0,0,1,.28-.35l2.51-1.45a.73.73,0,0,1,.43-.14.56.56,0,0,1,.3.13s.13.13.23.25a1.24,1.24,0,0,0,1.07.42,2.22,2.22,0,0,0,1-.35,7.3,7.3,0,0,0,1.7-1.32,2.35,2.35,0,0,0,.68-1.62.62.62,0,0,0-.25-.59,1.31,1.31,0,0,0-.75-.12,7.74,7.74,0,0,0-1.27.25l-1.83.47c-1.32.32-2.28.16-2.89-.51a5.29,5.29,0,0,1-.91-3.53,10,10,0,0,1,.38-2.64,12.38,12.38,0,0,1,1.08-2.66,11.78,11.78,0,0,1,1.72-2.39A9.52,9.52,0,0,1,174.51,127.83Z" style="fill:#fff"></path><path d="M192.17,117.93a.28.28,0,0,1,.36,0,.66.66,0,0,1,.16.48v3.13a1.59,1.59,0,0,1-.16.65,1,1,0,0,1-.36.44l-3.38,1.95v15.15a1.57,1.57,0,0,1-.15.65,1,1,0,0,1-.36.44l-2.52,1.45a.28.28,0,0,1-.36,0,.66.66,0,0,1-.15-.48V126.65l-3.38,1.95a.27.27,0,0,1-.36,0,.59.59,0,0,1-.16-.47V125a1.42,1.42,0,0,1,.16-.65,1,1,0,0,1,.36-.45Z" style="fill:#fff"></path></g><g id="freepik--post-window--inject-234"><path d="M284.89,62.2l-82,47.39a6.44,6.44,0,0,0-2.9,5V231.35c0,1.85,1.31,2.59,2.9,1.67l82-47.4c1.6-.92,2.89-2.09,2.89-3.93V63.86C287.78,62,286.49,61.27,284.89,62.2Z" style="fill:#fafafa"></path><path d="M201.58,233.77a1.84,1.84,0,0,1-.93-.24,2.35,2.35,0,0,1-1-2.18V114.61a6.73,6.73,0,0,1,3.07-5.33l82-47.39h0a2.11,2.11,0,0,1,3.43,2V181.69c0,2.22-1.76,3.49-3.08,4.24l-82,47.4A2.91,2.91,0,0,1,201.58,233.77Zm84.6-171.62a2.28,2.28,0,0,0-1.12.36h0l-82,47.39a6,6,0,0,0-2.72,4.71V231.35a1.42,1.42,0,0,0,2.36,1.36l82-47.39c1.88-1.08,2.71-2.2,2.71-3.63V63.86a1.68,1.68,0,0,0-.67-1.56A1.08,1.08,0,0,0,286.18,62.15Z" style="fill:#e6e6e6"></path><path d="M211.92,112.85c3.19-1.84,5.78-.35,5.78,3.34a12.77,12.77,0,0,1-5.78,10c-3.2,1.85-5.79.35-5.79-3.33A12.77,12.77,0,0,1,211.92,112.85Z" style="fill:#00A0BC"></path><path d="M211.85,115.05c.85-.49,1.55-.09,1.55.9a3.42,3.42,0,0,1-1.55,2.68c-.86.5-1.55.1-1.55-.89A3.43,3.43,0,0,1,211.85,115.05Z" style="fill:#fff"></path><path d="M214.9,120.71c0-1.62-1.14-2.34-2.54-1.53l-.88.51a5.61,5.61,0,0,0-2.55,4.41v.44s.6,1.23,3-.18a6.67,6.67,0,0,0,3-3.27Z" style="fill:#fff"></path><path d="M224,111.19l27.49-15.87c1.19-.69,2.16-.14,2.16,1.22a4.73,4.73,0,0,1-2.16,3.72L224,116.19c-1.19.69-2.15.14-2.15-1.24v0A4.77,4.77,0,0,1,224,111.19Z" style="fill:#455a64"></path><path d="M213,208.52l-1.27-.34c-1.22-.32-2.66-1-2.66-2.59a4.08,4.08,0,0,1,2-3.11,1.24,1.24,0,0,1,2,.94,4.86,4.86,0,0,1,2-3.2c1.09-.63,2-.26,2,.83,0,1.56-1.44,3.94-2.66,5.66Z" style="fill:#00A0BC"></path><path d="M223.52,202.5a2,2,0,0,1-1-.25,2.55,2.55,0,0,1-1.09-2.34,7.39,7.39,0,0,1,3.34-5.78,2.24,2.24,0,0,1,3.66,2.1,5.68,5.68,0,0,1-.21,1.48l1.08,1.48a.32.32,0,0,1,0,.33.33.33,0,0,1-.28.17h-1.69a6.77,6.77,0,0,1-2.27,2.33A3.22,3.22,0,0,1,223.52,202.5Zm2.85-8.23a2.66,2.66,0,0,0-1.27.4,6.68,6.68,0,0,0-3,5.24,1.64,1.64,0,0,0,2.71,1.57,6.24,6.24,0,0,0,2.14-2.26.32.32,0,0,1,.27-.16h1.25l-.77-1.06a.3.3,0,0,1-.09-.31,5.26,5.26,0,0,0,.23-1.46,2,2,0,0,0-.78-1.79A1.33,1.33,0,0,0,226.37,194.27Z" style="fill:#455a64"></path><path d="M234.5,196.55h0a.32.32,0,0,1-.27-.3l-.28-4.51-2.67-.72a.29.29,0,0,1-.23-.26.3.3,0,0,1,.15-.31l6.37-3.68a.34.34,0,0,1,.36,0,.29.29,0,0,1,.09.34l-3.18,9.2A.32.32,0,0,1,234.5,196.55Zm-2.37-5.94,2.16.59a.3.3,0,0,1,.23.28l.2,3.17,2.39-6.92Z" style="fill:#455a64"></path><path d="M234.21,191.81a.33.33,0,0,1-.19-.06.32.32,0,0,1-.06-.44l3.48-4.46a.32.32,0,0,1,.44-.06.31.31,0,0,1,.05.44l-3.47,4.46A.32.32,0,0,1,234.21,191.81Z" style="fill:#455a64"></path><path d="M271,178.09H271a.31.31,0,0,1-.25-.3v-7.36a.32.32,0,0,1,.16-.27l4.65-2.7a.29.29,0,0,1,.31,0,.3.3,0,0,1,.16.27v7.35a.3.3,0,0,1-.19.29.3.3,0,0,1-.34-.06l-2-2-2.13,4.62A.31.31,0,0,1,271,178.09Zm.31-7.49v5.74l1.71-3.72a.32.32,0,0,1,.23-.18.3.3,0,0,1,.28.09l1.81,1.79v-6Z" style="fill:#455a64"></path><path d="M220.07,215.8a.37.37,0,0,1,0,.16.34.34,0,0,1-.12.12l-.47.27a.11.11,0,0,1-.12,0,.1.1,0,0,1-.05-.1v-4.67a.33.33,0,0,1,.05-.16.51.51,0,0,1,.12-.13l.47-.27a.11.11,0,0,1,.12,0,.12.12,0,0,1,0,.11Z" style="fill:#455a64"></path><path d="M221.58,210.06a.11.11,0,0,1,.12,0,.11.11,0,0,1,.05.1v.56a.33.33,0,0,1-.05.16.3.3,0,0,1-.12.13l-.53.3a.11.11,0,0,1-.12,0,.1.1,0,0,1-.05-.1v-.56a.37.37,0,0,1,.05-.16.51.51,0,0,1,.12-.13Zm.14,4.78a.41.41,0,0,1-.05.17.46.46,0,0,1-.12.12l-.47.27a.11.11,0,0,1-.12,0s0,0,0-.11V212a.38.38,0,0,1,0-.17.68.68,0,0,1,.12-.12l.47-.27a.11.11,0,0,1,.12,0,.11.11,0,0,1,.05.1Z" style="fill:#455a64"></path><path d="M223.37,212.66v1.23a.33.33,0,0,1-.05.16.3.3,0,0,1-.12.13l-.47.27a.11.11,0,0,1-.11,0s-.05-.06-.05-.11v-4.67a.25.25,0,0,1,.05-.16.36.36,0,0,1,.11-.13l.47-.27c.05,0,.09,0,.12,0a.13.13,0,0,1,.05.11v2.24l1-1.55a.8.8,0,0,1,.09-.14.44.44,0,0,1,.15-.12l.63-.37a.12.12,0,0,1,.1,0,.11.11,0,0,1,0,.1s0,0,0,.07a.64.64,0,0,1-.06.11l-1.44,2.17,1.57.83.05,0a.07.07,0,0,1,0,.05.28.28,0,0,1,0,.15.27.27,0,0,1-.1.11l-.6.34a.23.23,0,0,1-.16.05l-.09,0Z" style="fill:#455a64"></path><path d="M225.66,210.91a3.36,3.36,0,0,1,.11-.82,3.7,3.7,0,0,1,.3-.78,3.28,3.28,0,0,1,.48-.69,2.31,2.31,0,0,1,.62-.51,1.46,1.46,0,0,1,.63-.21.78.78,0,0,1,.48.11.83.83,0,0,1,.3.4,1.73,1.73,0,0,1,.11.63v.33a.37.37,0,0,1-.05.16.28.28,0,0,1-.12.12l-2.06,1.19a.5.5,0,0,0,.06.26.28.28,0,0,0,.16.12.62.62,0,0,0,.23,0,1.12,1.12,0,0,0,.26-.11,1.39,1.39,0,0,0,.32-.23,2.25,2.25,0,0,0,.21-.24l.11-.14a.53.53,0,0,1,.11-.09l.5-.28a.11.11,0,0,1,.12,0,.08.08,0,0,1,0,.1.92.92,0,0,1-.09.32,3,3,0,0,1-.27.46,4,4,0,0,1-.44.51,3.61,3.61,0,0,1-.61.46,1.66,1.66,0,0,1-.62.22.75.75,0,0,1-.48-.12.91.91,0,0,1-.3-.44A2.08,2.08,0,0,1,225.66,210.91Zm1.51-1.94a1,1,0,0,0-.3.23,1.42,1.42,0,0,0-.22.28,2.38,2.38,0,0,0-.13.29,1.58,1.58,0,0,0-.06.26l1.4-.8a1.17,1.17,0,0,0-.05-.2.25.25,0,0,0-.11-.15.26.26,0,0,0-.2,0A.83.83,0,0,0,227.17,209Z" style="fill:#455a64"></path><path d="M231.1,208.55a.11.11,0,0,0,0-.1.23.23,0,0,0-.15,0l-.29.08-.45.15a1.48,1.48,0,0,1-.45.09.5.5,0,0,1-.29-.09.42.42,0,0,1-.15-.23,1.4,1.4,0,0,1,0-.37,1.65,1.65,0,0,1,.08-.47,2.19,2.19,0,0,1,.25-.51,3.06,3.06,0,0,1,.4-.49,2.41,2.41,0,0,1,.54-.41,2,2,0,0,1,.54-.24.93.93,0,0,1,.4,0,.44.44,0,0,1,.26.14.45.45,0,0,1,.1.28.25.25,0,0,1,0,.16.51.51,0,0,1-.12.13l-.48.27a.18.18,0,0,1-.14,0l-.1,0h-.15a.92.92,0,0,0-.27.12,1.43,1.43,0,0,0-.33.25.46.46,0,0,0-.14.31.19.19,0,0,0,0,.12.24.24,0,0,0,.13,0l.27-.07.44-.14c.36-.12.62-.13.77,0a.66.66,0,0,1,.23.58,1.24,1.24,0,0,1-.1.47,2.8,2.8,0,0,1-.26.52,3.36,3.36,0,0,1-.44.5,2.67,2.67,0,0,1-.57.43,2.11,2.11,0,0,1-.58.25,1,1,0,0,1-.42,0,.5.5,0,0,1-.27-.17.48.48,0,0,1-.09-.29.25.25,0,0,1,0-.16.51.51,0,0,1,.12-.13l.48-.27c.06,0,.1-.05.14,0l.1.05a.26.26,0,0,0,.16,0,1,1,0,0,0,.32-.13l.19-.13a.84.84,0,0,0,.18-.15,1,1,0,0,0,.14-.16A.3.3,0,0,0,231.1,208.55Z" style="fill:#455a64"></path><path d="M209.14,218.53a.17.17,0,0,1,0-.13.3.3,0,0,1,0-.16l1-1.84c0-.05.05-.09.07-.13a.38.38,0,0,1,.09-.09l.37-.21s.07,0,.09,0a.15.15,0,0,1,0,.12v4.71a.32.32,0,0,1,0,.16.17.17,0,0,1-.09.11l-.38.22s-.07,0-.09,0a.16.16,0,0,1,0-.12v-3.6l-.67,1.19c0,.05-.06.09-.1.1a.07.07,0,0,1-.08,0Z" style="fill:#455a64"></path><path d="M211.66,215.63a.45.45,0,0,1,0-.16.35.35,0,0,1,.09-.11l1.78-1s.07,0,.09,0a.12.12,0,0,1,0,.11V215a.32.32,0,0,1,0,.16.2.2,0,0,1-.09.11l-1.33.77,0,1a1.82,1.82,0,0,1,.25-.24l.21-.13a1.41,1.41,0,0,1,.49-.18.59.59,0,0,1,.4.1.85.85,0,0,1,.26.38,2.09,2.09,0,0,1,.09.67,3.25,3.25,0,0,1-.1.85,2.9,2.9,0,0,1-.26.7,2,2,0,0,1-.4.54,2.11,2.11,0,0,1-.48.38,1.3,1.3,0,0,1-.56.21.6.6,0,0,1-.39-.09.73.73,0,0,1-.23-.33,1.78,1.78,0,0,1-.09-.49.29.29,0,0,1,0-.16.17.17,0,0,1,.09-.11l.38-.22a.1.1,0,0,1,.09,0,.19.19,0,0,1,.05.1.45.45,0,0,0,.09.22.24.24,0,0,0,.14.09.37.37,0,0,0,.18,0,1,1,0,0,0,.21-.1,1.09,1.09,0,0,0,.44-.48,1.51,1.51,0,0,0,.16-.71.52.52,0,0,0-.16-.45.38.38,0,0,0-.44,0,1.58,1.58,0,0,0-.22.16l-.14.16s-.07.09-.09.13a.52.52,0,0,1-.11.1l-.44.25a.06.06,0,0,1-.09,0,.17.17,0,0,1,0-.12Z" style="fill:#455a64"></path><path d="M214.31,217.27a3.07,3.07,0,0,1,.09-.77c.07-.23.14-.46.22-.69l.9-2.47,0-.12a.22.22,0,0,1,.1-.11l.43-.25a.06.06,0,0,1,.09,0,.17.17,0,0,1,0,.12v.06s0,0,0,0l-.59,1.64a1.29,1.29,0,0,1,.52-.16.63.63,0,0,1,.4.14.83.83,0,0,1,.26.41,2.13,2.13,0,0,1,.09.67,3.39,3.39,0,0,1-.09.78,3.53,3.53,0,0,1-.27.73,2.77,2.77,0,0,1-.41.6,1.93,1.93,0,0,1-.52.43,1.06,1.06,0,0,1-.52.17.6.6,0,0,1-.4-.13.81.81,0,0,1-.27-.42A2.2,2.2,0,0,1,214.31,217.27Zm1.93-1.11a.7.7,0,0,0-.17-.53c-.11-.1-.27-.09-.48,0a1.22,1.22,0,0,0-.47.53,1.65,1.65,0,0,0-.17.72.74.74,0,0,0,.17.54c.11.1.27.1.47,0a1.18,1.18,0,0,0,.48-.53A1.73,1.73,0,0,0,216.24,216.16Z" style="fill:#455a64"></path><path d="M279.77,154.59a3.43,3.43,0,0,1-1.54,2.67l-67.45,39c-.85.49-1.54.1-1.54-.89V134.33a3.4,3.4,0,0,1,1.54-2.67l67.45-39c.85-.49,1.54-.09,1.54.89Z" style="fill:#00A0BC"></path><path d="M279.77,154.59a3.43,3.43,0,0,1-1.54,2.67l-67.45,39c-.85.49-1.54.1-1.54-.89V134.33a3.4,3.4,0,0,1,1.54-2.67l67.45-39c.85-.49,1.54-.09,1.54.89Z" style="fill:#fff;opacity:0.7000000000000001"></path><path d="M209.24,174.73v20.66c0,1,.69,1.38,1.54.89l67.45-39a3.43,3.43,0,0,0,1.54-2.67V131.8l-17-11.65-16,30.4,8.91,7.49L232,145.73Z" style="fill:#fff;opacity:0.6000000000000001"></path></g></g><g id="freepik--Likes--inject-234"><g id="freepik--Like--inject-234"><path d="M45.63,295.57s1-5.46.94-6.26-1.63-3.66-1.88-4.2,2.24-1.89,3.93-.29a8.74,8.74,0,0,1,2.83,5.23l6.25-2.79a2.1,2.1,0,0,1,2.74,1.13,2.31,2.31,0,0,1-.2,2.28,1.91,1.91,0,0,1,2,1.2,2.15,2.15,0,0,1-.68,2.57,2.57,2.57,0,0,1,1.07,1.31,2.33,2.33,0,0,1-.94,2.61,4.35,4.35,0,0,1,.91,1.3,2.38,2.38,0,0,1-1.43,3l-10.35,4.63Z" style="fill:#00A0BC"></path><rect x="42.31" y="296.25" width="4.94" height="14.92" transform="translate(-119.95 44.66) rotate(-24.06)" style="fill:#00A0BC"></rect></g><g id="freepik--like--inject-234"><path d="M396.15,123.31s-2.91-6.37-3.13-7.35.84-5,1-5.72-3.34-1.61-4.89.88a11,11,0,0,0-1.8,7.29L378.77,117a2.66,2.66,0,0,0-3,2.25,2.9,2.9,0,0,0,1,2.72,2.41,2.41,0,0,0-2.11,2.11,2.7,2.7,0,0,0,1.64,2.93,3.29,3.29,0,0,0-.9,1.94,3,3,0,0,0,2,2.89,5.37,5.37,0,0,0-.7,1.88,3,3,0,0,0,2.69,3.2l14.11,2.38Z" style="fill:#00A0BC"></path><rect x="390.35" y="129.88" width="18.83" height="6.23" transform="translate(202.23 505.12) rotate(-80.44)" style="fill:#00A0BC"></rect></g></g><g id="freepik--Hearts--inject-234"><path id="freepik--Heart--inject-234" d="M437.58,266.73l-2.2-2.31c-2.91-3.05-6.1-7.6-4.79-11.94a5.56,5.56,0,0,1,10.87,1.26,5.56,5.56,0,0,1,9.77,4.95C450,263,444.79,265,440.7,266Z" style="fill:#00A0BC"></path><path id="freepik--heart--inject-234" d="M108.28,92.27l-3.72-.68c-4.9-.9-11.11-3-12.88-8.09A6.58,6.58,0,0,1,103,77.14a6.58,6.58,0,0,1,12.78-2c1.74,5-1.76,10.52-5,14.31Z" style="fill:#00A0BC"></path></g><g id="freepik--Video--inject-234"><g id="freepik--video--inject-234"><path d="M268.82,7.7,225.08,33a2.24,2.24,0,0,0-1,1.77V76.4a2.24,2.24,0,0,0,1,1.77l1.68,1a2.25,2.25,0,0,0,2.05,0l43.74-25.26a2.26,2.26,0,0,0,1-1.77V10.44a2.25,2.25,0,0,0-1-1.77l-1.68-1A2.23,2.23,0,0,0,268.82,7.7Z" style="fill:#00A0BC"></path><path d="M268.82,7.7,225.08,33a2.24,2.24,0,0,0-1,1.77V76.4a2.24,2.24,0,0,0,1,1.77l1.68,1a2.25,2.25,0,0,0,2.05,0l43.74-25.26a2.26,2.26,0,0,0,1-1.77V10.44a2.25,2.25,0,0,0-1-1.77l-1.68-1A2.23,2.23,0,0,0,268.82,7.7Z" style="opacity:0.30000000000000004"></path><path d="M273.53,10.13c-.13-.42-.52-.55-1-.28L228.81,35.11a2.06,2.06,0,0,0-.73.76l-3.72-2.15a2,2,0,0,1,.72-.76L268.82,7.7a2.31,2.31,0,0,1,2.05,0l1.67,1A2.3,2.3,0,0,1,273.53,10.13Z" style="fill:#00A0BC"></path><path d="M273.53,10.13c-.13-.42-.52-.55-1-.28L228.81,35.11a2.06,2.06,0,0,0-.73.76l-3.72-2.15a2,2,0,0,1,.72-.76L268.82,7.7a2.31,2.31,0,0,1,2.05,0l1.67,1A2.3,2.3,0,0,1,273.53,10.13Z" style="fill:#fff;opacity:0.24"></path><path d="M272.54,9.85,228.81,35.11a2.25,2.25,0,0,0-1,1.77V78.55c0,.66.46.92,1,.59l43.74-25.26a2.26,2.26,0,0,0,1-1.77V10.44C273.57,9.79,273.11,9.52,272.54,9.85Z" style="fill:#00A0BC"></path><path d="M246.89,60.17a6.1,6.1,0,0,1-3.14-.83c-2.63-1.51-4.14-5-4.14-9.44a26,26,0,0,1,3.52-12.6,22.43,22.43,0,0,1,2.5-3.54h0a16.65,16.65,0,0,1,4.19-3.55c2.82-1.63,5.59-1.83,7.79-.56,2.62,1.52,4.13,5,4.13,9.44a26,26,0,0,1-3.52,12.6,19.26,19.26,0,0,1-6.69,7.1A9.37,9.37,0,0,1,246.89,60.17Zm-.1-25.41a21.69,21.69,0,0,0-2.34,3.3,24.55,24.55,0,0,0-3.31,11.84c0,3.93,1.23,6.89,3.37,8.12,1.7,1,3.92.79,6.25-.55a17.72,17.72,0,0,0,6.14-6.54,24.55,24.55,0,0,0,3.31-11.84c0-3.92-1.23-6.88-3.37-8.12-1.7-1-3.93-.79-6.25.56a14.8,14.8,0,0,0-3.8,3.23Z" style="fill:#fff"></path><path d="M256.53,42.13l-8.59,10.68c-.77,1-1.4.81-1.4-.35v-11c0-1.16.63-2,1.4-2l8.59.77C257.3,40.33,257.3,41.16,256.53,42.13Z" style="fill:#fff"></path></g></g><g id="freepik--Image--inject-234"><g id="freepik--image--inject-234"><path d="M468.65,132.35V194a1.93,1.93,0,0,1-.88,1.52l-53,30.63c-.49.28-.88.05-.88-.51v-2.78l52-30V133l1.93-1.11C468.26,131.55,468.65,131.79,468.65,132.35Z" style="fill:#e0e0e0"></path><path d="M465.84,133v61.4l-52,30V164a1.75,1.75,0,0,1,.26-.86,1.65,1.65,0,0,1,.62-.66Z" style="fill:#00A0BC"></path><path d="M465.84,133v61.4l-52,30V164a1.75,1.75,0,0,1,.26-.86,1.65,1.65,0,0,1,.62-.66Z" style="fill:#fff;opacity:0.8"></path><path d="M453,155a1.1,1.1,0,0,0-.18-.14h0l0,0-3.29-1.9h0a1.12,1.12,0,0,0-1.48.36l-11.7,28.86L428.53,177l-.17-.12h0l0,0h0L425.07,175h0a1.12,1.12,0,0,0-1.5.33l-11.34,23v23.2l3.3,1.91,51-29.46a1.9,1.9,0,0,0,.95-1.64V169.92Z" style="fill:#00A0BC"></path><path d="M453,154.8l-.18-.13h0l0,0-3.29-1.9h0a1.11,1.11,0,0,0-1.48.36L436.3,182l-7.77-5.12-.17-.11h0l0,0h0l-3.25-1.88h0a1.1,1.1,0,0,0-1.5.33l-11.34,23v23.4l3.3,1.91,51-29.46a1.9,1.9,0,0,0,.95-1.64V169.72Z" style="opacity:0.15"></path><path d="M415.53,223.64v-23.4l11.34-23a1.11,1.11,0,0,1,1.66-.22l10.87,7.15,11.91-29A1.11,1.11,0,0,1,453,155l14.47,14.91v22.62a1.9,1.9,0,0,1-.95,1.64Z" style="fill:#00A0BC"></path><polygon points="439.4 184.19 435.98 192.54 438.15 183.37 439.4 184.19" style="opacity:0.15"></polygon><path d="M470.79,129.07s0-.08,0-.11a2,2,0,0,0-.85-1.28l-1.55-.89a2,2,0,0,0-1.76,0L409.8,159.6a1.9,1.9,0,0,0-.88,1.53v66.71a2,2,0,0,0,.88,1.53l1.54.88a2,2,0,0,0,1.56.1l.06,0a.51.51,0,0,0,.15-.07l56.81-32.81a2,2,0,0,0,.88-1.52V129.21C470.8,129.16,470.79,129.11,470.79,129.07Zm-2.13,62.66a1.94,1.94,0,0,1-.89,1.53l-53,30.63c-.48.28-.88.05-.88-.51V164a1.75,1.75,0,0,1,.26-.86,1.8,1.8,0,0,1,.62-.66l53-30.63c.49-.28.89-.06.89.51Z" style="fill:#f0f0f0"></path><path d="M412.9,230.35a2,2,0,0,1-1.56-.1l-1.54-.88a2,2,0,0,1-.88-1.53V161.13a1.8,1.8,0,0,1,.25-.87l3.31,1.91a1.82,1.82,0,0,0-.26.87v66.71C412.22,230.23,412.52,230.46,412.9,230.35Z" style="fill:#e0e0e0"></path><path d="M470.79,129.07s0-.08,0-.11c-.11-.37-.45-.49-.85-.26l-56.81,32.82a1.71,1.71,0,0,0-.63.65,1.82,1.82,0,0,0-.26.87v66.7c0,.49.3.72.68.61l.06,0,.15-.08,56.81-32.8a2,2,0,0,0,.87-1.53V129.07ZM468.65,194a1.93,1.93,0,0,1-.88,1.52l-53,30.63c-.49.28-.88.05-.88-.51V164a1.75,1.75,0,0,1,.26-.86,1.65,1.65,0,0,1,.62-.66L465.84,133l1.93-1.11c.49-.28.88-.05.88.51Z" style="fill:#fafafa"></path><path d="M434.63,163.11l1.28-2.18-2.63-1.53h0a2.51,2.51,0,0,0-2.52.25,7.86,7.86,0,0,0-3.55,6.16,2.52,2.52,0,0,0,1,2.29h0l2.54,1.48,1.23-2.08A8.35,8.35,0,0,0,434.63,163.11Z" style="fill:#00A0BC"></path><path d="M434.63,163.11l1.28-2.18-2.63-1.53h0a2.51,2.51,0,0,0-2.52.25,7.86,7.86,0,0,0-3.55,6.16,2.52,2.52,0,0,0,1,2.29h0l2.54,1.48,1.23-2.08A8.35,8.35,0,0,0,434.63,163.11Z" style="opacity:0.15"></path><path d="M433.35,161.15c2-1.13,3.56-.21,3.56,2.06a7.86,7.86,0,0,1-3.56,6.16c-2,1.13-3.55.21-3.55-2.05A7.89,7.89,0,0,1,433.35,161.15Z" style="fill:#00A0BC"></path></g></g><g id="freepik--Clock--inject-234"><g id="freepik--clock--inject-234"><g id="freepik--speech-bubble--inject-234"><g id="freepik--message-icon--inject-234"><path d="M93.5,407.72a3.88,3.88,0,0,0,1.77,3l1.44.83a4,4,0,0,0,3.23.15c-.84.32-1.47-.16-1.47-1.17V396.06a3.61,3.61,0,0,1,.52-1.74l-5-2.87a3.61,3.61,0,0,0-.52,1.74Z" style="fill:#00A0BC"></path><path d="M93.5,407.72a3.88,3.88,0,0,0,1.77,3l1.44.83a4,4,0,0,0,3.23.15c-.84.32-1.47-.16-1.47-1.17V396.06a3.61,3.61,0,0,1,.52-1.74l-5-2.87a3.61,3.61,0,0,0-.52,1.74Z" style="opacity:0.2"></path><path d="M138,372.7a.92.92,0,0,0-.91-.76,1.62,1.62,0,0,0-.79.24L100.23,393A3.52,3.52,0,0,0,99,394.32a3.61,3.61,0,0,0-.52,1.74v14.52c0,.81.4,1.27,1,1.27a1.35,1.35,0,0,0,.42-.08l.06,0a1.77,1.77,0,0,0,.31-.15l36.23-20.93a2.73,2.73,0,0,0,1.6-2.94V373.2A2.2,2.2,0,0,0,138,372.7Z" style="fill:#00A0BC"></path><path d="M138,372.7c-.2-.75-.89-1-1.7-.52L100.24,393A3.54,3.54,0,0,0,99,394.32l-5-2.87a3.62,3.62,0,0,1,1.25-1.32l36.06-20.81a3.92,3.92,0,0,1,3.53,0l1.45.83A3.89,3.89,0,0,1,138,372.7Z" style="fill:#00A0BC"></path><path d="M138,372.7c-.2-.75-.89-1-1.7-.52L100.24,393A3.54,3.54,0,0,0,99,394.32l-5-2.87a3.62,3.62,0,0,1,1.25-1.32l36.06-20.81a3.92,3.92,0,0,1,3.53,0l1.45.83A3.89,3.89,0,0,1,138,372.7Z" style="fill:#fff;opacity:0.24"></path></g></g><path d="M105.65,394.47a.13.13,0,0,1,.17,0,.29.29,0,0,1,.07.22v1a1,1,0,0,1-.06.32c0,.11-.09.22-.13.3l-1.32,2.9a1.71,1.71,0,0,1,.74-.12.93.93,0,0,1,.56.25,1.58,1.58,0,0,1,.36.63,3.63,3.63,0,0,1,.12,1,5.35,5.35,0,0,1-.18,1.39,5.22,5.22,0,0,1-.51,1.24,5.05,5.05,0,0,1-.78,1,4.33,4.33,0,0,1-1,.77,2.7,2.7,0,0,1-1.1.4,1.26,1.26,0,0,1-.77-.14,1.09,1.09,0,0,1-.47-.54,2.35,2.35,0,0,1-.19-.8.52.52,0,0,1,.06-.3.55.55,0,0,1,.18-.21l.71-.41a.12.12,0,0,1,.15,0,.62.62,0,0,1,.12.19.61.61,0,0,0,.15.23.39.39,0,0,0,.23.12.72.72,0,0,0,.38,0,2.74,2.74,0,0,0,.55-.25,2.56,2.56,0,0,0,.88-.85,2.12,2.12,0,0,0,.34-1.16c0-.42-.11-.65-.34-.7a1.3,1.3,0,0,0-.88.24l-.75.43a.12.12,0,0,1-.17,0,.28.28,0,0,1-.07-.22v-1a1,1,0,0,1,.06-.33l.13-.3,1.26-2.77-2.48,1.44a.13.13,0,0,1-.17,0,.3.3,0,0,1-.07-.23v-1a.73.73,0,0,1,.07-.31.43.43,0,0,1,.17-.2Z" style="fill:#fff"></path><path d="M108.73,395.44a.12.12,0,0,1,.17,0,.29.29,0,0,1,.07.22V397a.66.66,0,0,1-.07.3.51.51,0,0,1-.17.22l-.84.48a.14.14,0,0,1-.17,0,.29.29,0,0,1-.07-.22v-1.36a.67.67,0,0,1,.07-.31.54.54,0,0,1,.17-.21Zm0,4.85a.12.12,0,0,1,.17,0,.29.29,0,0,1,.07.22v1.36a.66.66,0,0,1-.07.3.51.51,0,0,1-.17.22l-.84.48a.14.14,0,0,1-.17,0,.29.29,0,0,1-.07-.22v-1.36a.67.67,0,0,1,.07-.31.54.54,0,0,1,.17-.21Z" style="fill:#fff"></path><path d="M110,395.1a.35.35,0,0,1,0-.24.71.71,0,0,1,.1-.31l2-3.49.15-.25a.46.46,0,0,1,.17-.17l.7-.41a.14.14,0,0,1,.17,0,.3.3,0,0,1,.07.23v8.95a.66.66,0,0,1-.07.3.54.54,0,0,1-.17.21l-.73.42a.12.12,0,0,1-.17,0,.29.29,0,0,1-.07-.22v-6.85l-1.28,2.28a.51.51,0,0,1-.18.18.14.14,0,0,1-.16-.05Z" style="fill:#fff"></path><path d="M115.4,389.23a.87.87,0,0,1,.07-.31.54.54,0,0,1,.17-.21l3.39-1.95a.14.14,0,0,1,.17,0,.29.29,0,0,1,.07.22v1a.66.66,0,0,1-.07.3.54.54,0,0,1-.17.21L116.5,390l-.1,1.83a2.2,2.2,0,0,1,.48-.45,4.33,4.33,0,0,1,.39-.26,2.47,2.47,0,0,1,.94-.33,1.06,1.06,0,0,1,.75.18,1.56,1.56,0,0,1,.49.72,3.76,3.76,0,0,1,.18,1.27,6.81,6.81,0,0,1-.18,1.62,5.5,5.5,0,0,1-.51,1.33,4.2,4.2,0,0,1-.75,1,4.42,4.42,0,0,1-.92.72,2.57,2.57,0,0,1-1.06.39,1,1,0,0,1-.74-.17,1.26,1.26,0,0,1-.44-.62,2.92,2.92,0,0,1-.17-.94.59.59,0,0,1,.07-.31.58.58,0,0,1,.17-.2l.73-.42a.15.15,0,0,1,.17,0,.31.31,0,0,1,.09.19.91.91,0,0,0,.18.42.43.43,0,0,0,.26.16.72.72,0,0,0,.35,0,3.44,3.44,0,0,0,.39-.19,2.17,2.17,0,0,0,.83-.91,2.93,2.93,0,0,0,.32-1.36,1,1,0,0,0-.32-.86.77.77,0,0,0-.83.05,2.29,2.29,0,0,0-.42.31,1.39,1.39,0,0,0-.26.3,3,3,0,0,0-.18.25.74.74,0,0,1-.21.18l-.83.48a.14.14,0,0,1-.17,0,.32.32,0,0,1-.07-.22Z" style="fill:#fff"></path><path d="M122.07,389.29a3.27,3.27,0,0,1,.16-.72,5,5,0,0,1,.37-.84,4.46,4.46,0,0,1,.58-.81,3.45,3.45,0,0,1,.81-.66,2.12,2.12,0,0,1,.83-.29.94.94,0,0,1,.63.18,1.3,1.3,0,0,1,.41.67A3.94,3.94,0,0,1,126,388v4.07a.67.67,0,0,1-.08.3.34.34,0,0,1-.17.21l-.68.4a.13.13,0,0,1-.17,0,.3.3,0,0,1-.07-.23v-.45a4.31,4.31,0,0,1-.55,1,2.9,2.9,0,0,1-.9.8,1.75,1.75,0,0,1-.7.25.7.7,0,0,1-.51-.16,1.08,1.08,0,0,1-.32-.5,2.66,2.66,0,0,1-.11-.8,3.58,3.58,0,0,1,.44-1.75,5.29,5.29,0,0,1,1.18-1.42l1.47-1.23c0-.38-.08-.6-.25-.67a.71.71,0,0,0-.6.12,1,1,0,0,0-.35.3,2.81,2.81,0,0,0-.24.4l-.15.24-.15.12-.84.49c-.06,0-.11,0-.15,0S122.05,389.39,122.07,389.29Zm1.5,3a2.31,2.31,0,0,0,.54-.45,2.5,2.5,0,0,0,.4-.58,3.39,3.39,0,0,0,.25-.64,2.78,2.78,0,0,0,.08-.62v-.14l-1.23,1a2.72,2.72,0,0,0-.53.59,1.17,1.17,0,0,0-.16.6c0,.2.06.3.19.32A.74.74,0,0,0,123.57,392.33Z" style="fill:#fff"></path><path d="M128.83,384.31a4.25,4.25,0,0,1,.52-.92,2.42,2.42,0,0,1,.64-.58,1.18,1.18,0,0,1,.93-.21,1,1,0,0,1,.57.52,3.85,3.85,0,0,1,.28-.66,5.44,5.44,0,0,1,.37-.59,3.67,3.67,0,0,1,.4-.46,2.55,2.55,0,0,1,.4-.31,1.39,1.39,0,0,1,.86-.23.86.86,0,0,1,.55.39,2.22,2.22,0,0,1,.3.86,7.29,7.29,0,0,1,.09,1.19V387a.67.67,0,0,1-.08.3.41.41,0,0,1-.17.21l-.68.4a.13.13,0,0,1-.17,0,.3.3,0,0,1-.07-.23v-3.65a1.88,1.88,0,0,0-.24-1.19c-.16-.15-.37-.15-.66,0a1.65,1.65,0,0,0-.61.72,3.33,3.33,0,0,0-.28,1.42v3.72a.7.7,0,0,1-.07.31.46.46,0,0,1-.17.21l-.68.39a.14.14,0,0,1-.18,0,.34.34,0,0,1-.07-.22v-3.66a1.93,1.93,0,0,0-.23-1.18q-.24-.24-.66,0a1.85,1.85,0,0,0-.63.75,3.41,3.41,0,0,0-.26,1.46v3.66a.66.66,0,0,1-.07.3.54.54,0,0,1-.17.21l-.69.4a.12.12,0,0,1-.17,0,.26.26,0,0,1-.07-.22v-6.45a.7.7,0,0,1,.07-.31.54.54,0,0,1,.17-.21l.69-.39a.12.12,0,0,1,.17,0,.29.29,0,0,1,.07.22Z" style="fill:#fff"></path></g></g><g id="freepik--speech-bubbles--inject-234"><g id="freepik--speech-bubble--inject-234"><g id="freepik--message-icon--inject-234"><path d="M342.07,117.89l-3.66-2.11a.35.35,0,0,1-.17-.15l-.67-1.17,2.17-1.26-.07.19Z" style="fill:#e0e0e0"></path><path d="M316.32,119a3.88,3.88,0,0,0,1.77,3.05l1.44.83a4,4,0,0,0,3.23.15c-.83.32-1.47-.16-1.47-1.17V104.15a3.61,3.61,0,0,1,.52-1.74l-5-2.87a3.61,3.61,0,0,0-.52,1.74Z" style="fill:#e0e0e0"></path><path d="M339.84,113.14a.48.48,0,0,0-.3-.24h-.13a.54.54,0,0,0-.25.06l-16.35,9.46a.8.8,0,0,1-.23.11h0l-.07,0a.85.85,0,0,1-.26,0c-.41,0-.48-.48-.48-.77V104.15a3.09,3.09,0,0,1,.46-1.49,3,3,0,0,1,1.06-1.14L362.2,79.07a1.11,1.11,0,0,1,.54-.18c.09,0,.32,0,.43.39a2.33,2.33,0,0,1,0,.37V97.33a2.25,2.25,0,0,1-1.35,2.5L345,109.56a.41.41,0,0,0-.22.26l-2.59,7.46Z" style="fill:#fafafa"></path><path d="M362.68,79.4a1.13,1.13,0,0,1,0,.25V97.33c0,1,0,1.45-1.1,2.07l-16.82,9.72a1,1,0,0,0-.45.54l-2.22,6.42-1.84-3.19a1,1,0,0,0-.61-.47,1.15,1.15,0,0,0-.26,0,1,1,0,0,0-.5.13L322.55,122a.84.84,0,0,1-.14.06h-.09a1.14,1.14,0,0,1,0-.26V104.15a2.74,2.74,0,0,1,.4-1.26,2.51,2.51,0,0,1,.86-.93l38.9-22.46a.78.78,0,0,1,.23-.1m.06-1a1.62,1.62,0,0,0-.79.24l-38.9,22.46a3.52,3.52,0,0,0-1.24,1.32,3.61,3.61,0,0,0-.52,1.74v17.67c0,.81.4,1.27,1,1.27a1.35,1.35,0,0,0,.42-.08l.06,0a1.77,1.77,0,0,0,.31-.15l16.35-9.45,2.53,4.37a.36.36,0,0,0,.32.19.38.38,0,0,0,.36-.26l2.67-7.7,16.82-9.72a2.73,2.73,0,0,0,1.6-2.94V79.65a2.2,2.2,0,0,0-.06-.5.92.92,0,0,0-.91-.76Z" style="fill:#e0e0e0"></path><path d="M363.65,79.15c-.2-.75-.89-1-1.7-.52l-38.89,22.46a3.54,3.54,0,0,0-1.25,1.32l-5-2.87a3.49,3.49,0,0,1,1.24-1.31L357,75.77a3.94,3.94,0,0,1,3.54,0l1.44.83A3.89,3.89,0,0,1,363.65,79.15Z" style="fill:#f0f0f0"></path><path d="M334.55,102.75a5,5,0,0,0-2.25,3.89c0,1.44,1,2,2.25,1.3a5,5,0,0,0,2.25-3.89C336.8,102.61,335.79,102,334.55,102.75Z" style="fill:#455a64"></path><path d="M342.07,98.45a4.94,4.94,0,0,0-2.25,3.89c0,1.43,1,2,2.25,1.3a5,5,0,0,0,2.24-3.9C344.31,98.31,343.31,97.73,342.07,98.45Z" style="fill:#455a64"></path><path d="M349.58,94.14a5,5,0,0,0-2.25,3.9c0,1.43,1,2,2.25,1.3a5,5,0,0,0,2.25-3.9C351.83,94,350.82,93.43,349.58,94.14Z" style="fill:#455a64"></path></g></g><g id="freepik--speech-bubble--inject-234"><g id="freepik--Notification--inject-234"><g id="freepik--message-icon--inject-234"><path d="M399.48,350.27a3.92,3.92,0,0,0,1.77,3.06l1.44.83a4,4,0,0,0,3.23.15c-.83.31-1.47-.16-1.47-1.17V320.39a3.58,3.58,0,0,1,.52-1.74l-5-2.87a3.61,3.61,0,0,0-.52,1.74Z" style="fill:#e0e0e0"></path><path d="M411.71,350.4,406,353.72a1.27,1.27,0,0,1-.23.12h-.05a.85.85,0,0,1-.26,0c-.41,0-.48-.48-.48-.76V320.39a3.06,3.06,0,0,1,.46-1.49,2.94,2.94,0,0,1,1.06-1.14l33.95-19.61A1.19,1.19,0,0,1,441,298c.08,0,.32,0,.42.38a1.64,1.64,0,0,1,0,.38v32.75a2.25,2.25,0,0,1-1.34,2.5l-22.5,13Z" style="fill:#fafafa"></path><path d="M440.9,298.48a1.22,1.22,0,0,1,0,.26v32.75c0,1,0,1.45-1.1,2.07l-22.49,13-5.88,3.4-5.75,3.33-.14.07h-.09a1.11,1.11,0,0,1,0-.25V320.39a2.71,2.71,0,0,1,.4-1.26,2.63,2.63,0,0,1,.86-.94l34-19.61a2.25,2.25,0,0,1,.23-.1m.07-1a1.58,1.58,0,0,0-.8.24l-34,19.61a3.52,3.52,0,0,0-1.24,1.32,3.61,3.61,0,0,0-.52,1.74v32.75c0,.8.4,1.26,1,1.26a1.32,1.32,0,0,0,.42-.07l.06,0a1.77,1.77,0,0,0,.31-.15l5.74-3.32,5.88-3.4,22.49-13a2.73,2.73,0,0,0,1.6-2.94V298.74a2.2,2.2,0,0,0-.06-.5.91.91,0,0,0-.9-.76Z" style="fill:#e0e0e0"></path><path d="M441.88,298.24c-.21-.75-.89-1-1.71-.52l-33.95,19.61a3.54,3.54,0,0,0-1.25,1.32l-5-2.87a3.52,3.52,0,0,1,1.24-1.32l33.95-19.61a3.92,3.92,0,0,1,3.53,0l1.44.83A3.87,3.87,0,0,1,441.88,298.24Z" style="fill:#f0f0f0"></path></g></g><path d="M415.14,338.31a1.43,1.43,0,0,1-.73-.2,2.16,2.16,0,0,1-.91-2V322.57a5.12,5.12,0,0,1,2.18-4.13l17.11-9.87a1.69,1.69,0,0,1,1.74-.11,2.17,2.17,0,0,1,.91,2V324a5.12,5.12,0,0,1-2.18,4.12l-1.07.62v3.57a2,2,0,0,1-.83,1.59.89.89,0,0,1-.86.07l-4-1.94-10.34,6A2,2,0,0,1,415.14,338.31Zm18.66-29.12a1.09,1.09,0,0,0-.54.18h0l-17.11,9.87a4.21,4.21,0,0,0-1.72,3.33v13.57a1.32,1.32,0,0,0,.44,1.17.81.81,0,0,0,.81-.1l10.56-6.1a.49.49,0,0,1,.44,0l4.23,2a1.36,1.36,0,0,0,.36-.83v-3.84a.45.45,0,0,1,.23-.4l1.29-.75a4.21,4.21,0,0,0,1.72-3.32V310.44a1.33,1.33,0,0,0-.44-1.18A.54.54,0,0,0,433.8,309.19ZM433,309h0Z" style="fill:#455a64"></path><path d="M413.19,346.89a.58.58,0,0,1-.19,0,.74.74,0,0,1-.51-.78v-1.57l-.11.06a1.25,1.25,0,0,1-1.26.06,1.5,1.5,0,0,1-.64-1.37v-8.39a3.38,3.38,0,0,1,1.43-2.71l1.82-1.05a.47.47,0,0,1,.63.17.46.46,0,0,1-.16.63l-1.82,1a2.47,2.47,0,0,0-1,1.91v8.39c0,.32.09.52.19.57s.26,0,.32-.06l.81-.46a.43.43,0,0,1,.46,0,.46.46,0,0,1,.23.4v1.81l2.39-3.93a.44.44,0,0,1,.17-.16l5.73-3.31a2.45,2.45,0,0,0,1-1.9v-2.75a.47.47,0,0,1,.93,0v2.75a3.35,3.35,0,0,1-1.44,2.7l-5.63,3.25L414,346.36A1,1,0,0,1,413.19,346.89Z" style="fill:#455a64"></path><path d="M431.51,317.26l-14.08,8.13c-.4.23-.73,0-.73-.56h0a1.75,1.75,0,0,1,.73-1.39l14.08-8.13c.4-.23.73,0,.73.55h0A1.76,1.76,0,0,1,431.51,317.26Z" style="fill:#455a64"></path><path d="M431.51,323.33l-14.08,8.13c-.4.23-.73,0-.73-.55h0a1.76,1.76,0,0,1,.73-1.4l14.08-8.13c.4-.23.73,0,.73.56h0A1.74,1.74,0,0,1,431.51,323.33Z" style="fill:#455a64"></path><path d="M438.29,305.69A7.94,7.94,0,0,1,435,312c-1.83,1.06-3.31-.06-3.31-2.51a8,8,0,0,1,3.31-6.34C436.81,302.12,438.29,303.24,438.29,305.69Z" style="fill:#00A0BC"></path><path d="M399.49,328l-8,8.33a1.13,1.13,0,0,0,.24,1.75h0l5.94,3.43h0a1.13,1.13,0,0,0,.72.15l7.1-.84v-9.38Z" style="fill:#f0f0f0"></path><path d="M405.45,331.46l-8,8.33a1.12,1.12,0,0,0,.94,1.89l7.1-.84Z" style="fill:#fafafa"></path><path d="M398,340.34a.32.32,0,0,0,.22.55l7.25-.84v.79l-7.11.84a1.12,1.12,0,0,1-.94-1.89l7.05-7.3V330.4h1v2.18Z" style="fill:#e0e0e0"></path></g><g id="freepik--speech-bubble--inject-234"><g id="freepik--notification--inject-234"><g id="freepik--message-icon--inject-234"><path d="M115.75,235.81a1.23,1.23,0,0,0-.65-.17l-10.87-.76V249l5.93,3.42,11.73-11a1.31,1.31,0,0,0-.19-2.11Z" style="fill:#f0f0f0"></path><path d="M76.63,274.15a3.92,3.92,0,0,0,1.77,3.06l1.43.83a4,4,0,0,0,3.24.14c-.84.32-1.47-.16-1.47-1.16V244.27a3.58,3.58,0,0,1,.52-1.74l-5-2.87a3.58,3.58,0,0,0-.52,1.74Z" style="fill:#e0e0e0"></path><path d="M88.86,274.28l-5.74,3.32a1.27,1.27,0,0,1-.23.12h0l-.07,0a1,1,0,0,1-.27,0c-.41,0-.47-.48-.47-.76V244.27a3.15,3.15,0,0,1,.45-1.49,3,3,0,0,1,1.06-1.14l29.1-16.76a1.11,1.11,0,0,1,.54-.18c.09,0,.33,0,.43.39a1.55,1.55,0,0,1,0,.37v32.75a2.26,2.26,0,0,1-1.34,2.51L94.74,270.88Z" style="fill:#fafafa"></path><path d="M113.19,225.21a1.21,1.21,0,0,1,0,.25v32.75c0,1,0,1.46-1.1,2.08L94.49,270.45l-5.88,3.4-5.75,3.33-.14.07h-.09a1.11,1.11,0,0,1,0-.25V244.27a3,3,0,0,1,1.26-2.2L113,225.31a.91.91,0,0,1,.23-.1m.06-1a1.69,1.69,0,0,0-.79.24l-29.1,16.77a3.52,3.52,0,0,0-1.24,1.32,3.61,3.61,0,0,0-.52,1.74V277c0,.8.4,1.26,1,1.26a1.33,1.33,0,0,0,.43-.07l.06,0a1.77,1.77,0,0,0,.31-.15l5.74-3.32,5.88-3.4,17.63-10.17a2.73,2.73,0,0,0,1.6-2.94V225.46a2.2,2.2,0,0,0-.06-.5.92.92,0,0,0-.91-.76Z" style="fill:#e0e0e0"></path><path d="M110.16,238.3l10.87.77a1.3,1.3,0,0,1,.86,2.28l-11.73,11Z" style="fill:#fafafa"></path><path d="M121,239.06l-7.81-.76v1l7.81.76a.31.31,0,0,1,.2.54l-8,7.8v1.32l8.66-8.37A1.3,1.3,0,0,0,121,239.06Z" style="fill:#e0e0e0"></path><path d="M114.17,225c-.21-.75-.89-1-1.71-.51L83.37,241.21a3.47,3.47,0,0,0-1.25,1.32l-5-2.87a3.54,3.54,0,0,1,1.25-1.32l29.09-16.76a3.92,3.92,0,0,1,3.53,0l1.44.83A3.94,3.94,0,0,1,114.17,225Z" style="fill:#f0f0f0"></path></g></g><path d="M91.06,255.87a2.43,2.43,0,0,1-1.22-.31,3.11,3.11,0,0,1-1.34-2.85,8.69,8.69,0,0,1,4-6.9h0A2.76,2.76,0,0,1,97,248.4a8.69,8.69,0,0,1-4,6.9A3.93,3.93,0,0,1,91.06,255.87Zm1.92-9.2a7.72,7.72,0,0,0-3.48,6,1.79,1.79,0,0,0,3,1.72,7.7,7.7,0,0,0,3.48-6,1.79,1.79,0,0,0-3-1.73Z" style="fill:#455a64"></path><path d="M85.2,271.17V268A14.13,14.13,0,0,1,91.59,257l2.11-1.22c1.76-1,3.45-1.16,4.78-.4s2.11,2.43,2.11,4.52v2.43Zm11.41-15.3a5,5,0,0,0-2.41.74l-2.11,1.22A13,13,0,0,0,86.2,268v1.41l13.39-7.72v-1.85A4,4,0,0,0,98,256.22,2.76,2.76,0,0,0,96.61,255.87Z" style="fill:#455a64"></path><path d="M102.26,247a2.09,2.09,0,0,1-1-.26,2.59,2.59,0,0,1-1.12-2.38,7.22,7.22,0,0,1,3.32-5.74,2.3,2.3,0,0,1,3.74,2.15,7.24,7.24,0,0,1-3.32,5.75A3.26,3.26,0,0,1,102.26,247Zm2.78-8a2.4,2.4,0,0,0-1.18.37,6.42,6.42,0,0,0-2.9,5,1.49,1.49,0,0,0,2.48,1.44,6.44,6.44,0,0,0,2.91-5,1.79,1.79,0,0,0-.71-1.65A1.19,1.19,0,0,0,105,239Z" style="fill:#455a64"></path><path d="M104.47,246.88l-1.77,1A11.75,11.75,0,0,0,98,254a.34.34,0,0,0,.29.45h0a.45.45,0,0,0,.53-.28,10.75,10.75,0,0,1,4.34-5.59l1.76-1a4,4,0,0,1,2-.62,2.3,2.3,0,0,1,1.14.29,3.36,3.36,0,0,1,1.35,3v1.55l-8,4.6a.49.49,0,0,0-.2.59h0a.33.33,0,0,0,.49.18l8.51-4.91v-2a4.13,4.13,0,0,0-1.76-3.76A3.91,3.91,0,0,0,104.47,246.88Z" style="fill:#455a64"></path><path d="M110.23,234.33a6.62,6.62,0,0,1-2.76,5.27c-1.52.87-2.75-.06-2.75-2.09a6.59,6.59,0,0,1,2.75-5.26C109,231.37,110.23,232.3,110.23,234.33Z" style="fill:#00A0BC"></path></g><g id="freepik--speech-bubble--inject-234"><g id="freepik--speech-bubble--inject-234"><path d="M59.3,170.47l-3.72-7,3-8.64v-5.29l-9.16,5.29v5.29L53.35,167a.68.68,0,0,0,.27.24h0Z" style="fill:#00A0BC"></path><path d="M59.3,170.47l-3.72-7,3-8.64v-5.29l-9.16,5.29v5.29L53.35,167a.68.68,0,0,0,.27.24h0Z" style="opacity:0.2"></path><path d="M91.56,112.48a6.1,6.1,0,0,0-2.74-4.76l-2.24-1.29a6,6,0,0,0-5.49,0L21.47,140.88a6.08,6.08,0,0,0-2.75,4.76v26.79a6.08,6.08,0,0,0,2.75,4.76l2.24,1.29a6,6,0,0,0,5.49,0l26-15,3.93,6.81a.59.59,0,0,0,1.06-.1l4.16-12L88.82,144a6.1,6.1,0,0,0,2.74-4.76Z" style="fill:#00A0BC"></path><path d="M18.72,172.43a6.08,6.08,0,0,0,2.75,4.76l2.24,1.29a6.13,6.13,0,0,0,5,.22c-1.29.49-2.28-.24-2.28-1.81V150.1a5.58,5.58,0,0,1,.81-2.7l-7.73-4.47a5.65,5.65,0,0,0-.81,2.71Z" style="opacity:0.2"></path><path d="M91.47,111.7c-.32-1.17-1.38-1.54-2.65-.81L29.2,145.35a5.41,5.41,0,0,0-1.94,2.05l-7.72-4.46a5.62,5.62,0,0,1,1.93-2.05l59.61-34.46a6.12,6.12,0,0,1,5.5,0l2.24,1.29A6,6,0,0,1,91.47,111.7Z" style="fill:#fff;opacity:0.24"></path></g><path d="M41.58,159.85a.26.26,0,0,1,.35,0,.58.58,0,0,1,.15.45v3a1.45,1.45,0,0,1-.15.62.92.92,0,0,1-.35.43L33,169.34a.27.27,0,0,1-.35,0,.64.64,0,0,1-.14-.45V150.49a1.59,1.59,0,0,1,.14-.62,1,1,0,0,1,.35-.43l2.42-1.4a.26.26,0,0,1,.35,0,.58.58,0,0,1,.15.45V163.1Z" style="fill:#fff"></path><path d="M45.09,162.38a.27.27,0,0,1-.35,0,.6.6,0,0,1-.15-.45V143.53a1.45,1.45,0,0,1,.15-.62.92.92,0,0,1,.35-.43l2.42-1.4a.26.26,0,0,1,.35,0,.58.58,0,0,1,.15.45v18.36a1.45,1.45,0,0,1-.15.63,1,1,0,0,1-.35.43Z" style="fill:#fff"></path><path d="M55.43,156.41c-.48.27-.81.08-1-.58l-3.77-15.59c0-.11,0-.19,0-.22a.41.41,0,0,1,0-.11,1.19,1.19,0,0,1,.12-.51.74.74,0,0,1,.28-.35l2.33-1.35c.25-.14.42-.16.53-.06a.63.63,0,0,1,.19.36l2.57,11,2.56-14a2.11,2.11,0,0,1,.2-.58,1.2,1.2,0,0,1,.52-.55l2.33-1.34a.2.2,0,0,1,.28,0,.45.45,0,0,1,.13.37s0,.08,0,.12a2.6,2.6,0,0,0,0,.28L58.84,153.3a2.37,2.37,0,0,1-1,1.7Z" style="fill:#fff"></path><path d="M74.53,140.83a.28.28,0,0,1,.36,0,.67.67,0,0,1,.14.46v3a1.51,1.51,0,0,1-.14.62,1,1,0,0,1-.36.44l-8.75,5.05a.26.26,0,0,1-.35,0,.62.62,0,0,1-.14-.45V131.59a1.6,1.6,0,0,1,.14-.63,1,1,0,0,1,.35-.43l8.61-5a.27.27,0,0,1,.35,0,.6.6,0,0,1,.15.45v3a1.41,1.41,0,0,1-.15.62,1,1,0,0,1-.35.43l-5.69,3.28v3.07l5.28-3a.27.27,0,0,1,.35,0,.62.62,0,0,1,.15.46v3a1.38,1.38,0,0,1-.15.62A.87.87,0,0,1,74,138l-5.28,3v3.19Z" style="fill:#fff"></path><path d="M82.36,126.24c2.27-1.31,4.11-.25,4.11,2.38a9.12,9.12,0,0,1-4.11,7.13c-2.28,1.31-4.12.25-4.12-2.38A9.07,9.07,0,0,1,82.36,126.24Z" style="fill:#fff"></path></g><g id="freepik--message-icon--inject-234"><path d="M355,286.38l-3.65-2.11a.34.34,0,0,1-.18-.15l-.67-1.17,2.17-1.26-.06.2Z" style="fill:#e0e0e0"></path><path d="M339.85,281.31a3.89,3.89,0,0,0,1.77,3.06l1.44.83a4,4,0,0,0,3.23.15c-.83.31-1.47-.16-1.47-1.17V246.66a3.64,3.64,0,0,1,.52-1.74l-5-2.87a3.64,3.64,0,0,0-.52,1.75Z" style="fill:#e0e0e0"></path><path d="M352.77,281.63a.48.48,0,0,0-.31-.23.27.27,0,0,0-.13,0,.47.47,0,0,0-.25.07l-5.74,3.32-.23.11h-.05a.63.63,0,0,1-.26.05c-.41,0-.48-.48-.48-.76V246.66a3.06,3.06,0,0,1,.46-1.48,3,3,0,0,1,1.06-1.15l38.89-22.45a1.19,1.19,0,0,1,.54-.17c.09,0,.32,0,.43.39a2.21,2.21,0,0,1,0,.37v37.51a2.25,2.25,0,0,1-1.35,2.51L358,278.05a.49.49,0,0,0-.22.27l-2.58,7.45Z" style="fill:#fafafa"></path><path d="M386.21,221.92a1.07,1.07,0,0,1,0,.25v37.51c0,1,0,1.45-1.1,2.08l-27.43,15.85a.94.94,0,0,0-.44.54L355,284.57l-1.84-3.19a1,1,0,0,0-.61-.47,1.09,1.09,0,0,0-.26,0,1,1,0,0,0-.5.13l-5.75,3.33a.61.61,0,0,1-.14.07h0l0,0a.78.78,0,0,1,0-.26V246.66a2.67,2.67,0,0,1,.4-1.25,2.63,2.63,0,0,1,.86-.94L386,222a.58.58,0,0,1,.23-.1m.06-1a1.55,1.55,0,0,0-.79.24l-38.9,22.45a3.52,3.52,0,0,0-1.24,1.32,3.61,3.61,0,0,0-.52,1.74v37.52c0,.8.4,1.26,1,1.26a1.32,1.32,0,0,0,.42-.07l.06,0a1.77,1.77,0,0,0,.31-.15l5.74-3.32,2.53,4.37a.36.36,0,0,0,.32.19.38.38,0,0,0,.36-.25l2.67-7.71,27.43-15.86a2.73,2.73,0,0,0,1.6-2.94V222.17a2.2,2.2,0,0,0-.06-.5.92.92,0,0,0-.91-.76Z" style="fill:#e0e0e0"></path><path d="M387.18,221.67c-.2-.75-.89-1-1.7-.52l-38.89,22.46a3.44,3.44,0,0,0-1.24,1.32l-5-2.87a3.52,3.52,0,0,1,1.24-1.32l38.88-22.46a3.94,3.94,0,0,1,3.54,0l1.44.83A3.89,3.89,0,0,1,387.18,221.67Z" style="fill:#f0f0f0"></path><path d="M350.45,250.25a1.23,1.23,0,0,1,.55-.95l28.05-16.19a1.19,1.19,0,0,1,1.1,0l.62.36a1.2,1.2,0,0,1,.54.94v21.51a1.22,1.22,0,0,1-.54,1l-28.06,16.19a1.17,1.17,0,0,1-1.09,0l-.62-.35a1.25,1.25,0,0,1-.55-.95Z" style="fill:#00A0BC"></path><path d="M350.45,250.25a1.23,1.23,0,0,1,.55-.95l28.05-16.19a1.19,1.19,0,0,1,1.1,0l.62.36a1.2,1.2,0,0,1,.54.94v21.51a1.22,1.22,0,0,1-.54,1l-28.06,16.19a1.17,1.17,0,0,1-1.09,0l-.62-.35a1.25,1.25,0,0,1-.55-.95Z" style="fill:#fff;opacity:0.24"></path><path d="M353,251.11l-2.41-1.4a1.15,1.15,0,0,0-.16.54v21.51a1.25,1.25,0,0,0,.55.95l.62.35a1.17,1.17,0,0,0,1.09,0l.31-.17Z" style="fill:#00A0BC"></path><path d="M353,251.11l-2.41-1.4a1.15,1.15,0,0,0-.16.54v21.51a1.25,1.25,0,0,0,.55.95l.62.35a1.17,1.17,0,0,0,1.09,0l.31-.17Z" style="opacity:0.30000000000000004"></path><path d="M381.31,234.42v21.5a1,1,0,0,1-.17.55.94.94,0,0,1-.32.36h0l0,0-28.06,16.19h0a.37.37,0,0,1-.37.05.38.38,0,0,1-.18-.36V251.24a.48.48,0,0,1,.62-.48l11.8,2.8,1.54.37a1,1,0,0,0,1-.37l1.79-2.49,12-16.77C381.15,234,381.31,234.07,381.31,234.42Z" style="fill:#00A0BC"></path><path d="M380.77,256.87l0,0h0a.94.94,0,0,0,.32-.36,1,1,0,0,0,.17-.54l-12.41-4.86,8.31,7.85Z" style="fill:#00A0BC"></path><path d="M380.77,256.87l0,0h0a.94.94,0,0,0,.32-.36,1,1,0,0,0,.17-.54v-.51l-12.41-4.35,8.31,7.85Z" style="opacity:0.2"></path><path d="M352.16,272.75a.38.38,0,0,0,.18.36.37.37,0,0,0,.37-.05h0l9.66-5.57,2.21-13.93-12.42,18.83Z" style="fill:#00A0BC"></path><path d="M352.16,272.75a.38.38,0,0,0,.18.36.37.37,0,0,0,.37-.05h0l9.66-5.57,2.21-13.93-12.42,17.51Z" style="opacity:0.2"></path><path d="M381.14,256.47a.94.94,0,0,1-.32.36h0l-28.09,16.22h0a.37.37,0,0,1-.37.05l13.43-21.45a2.11,2.11,0,0,1,2.64-.81Z" style="fill:#00A0BC"></path><path d="M352.39,250.73l12.77,5.63a2.08,2.08,0,0,0,2.61-.8l13.4-21.45Z" style="opacity:0.30000000000000004"></path><path d="M352.39,250.73l12.86,4.8a2.09,2.09,0,0,0,2.47-.81l13.45-20.61Z" style="fill:#00A0BC"></path><g id="freepik--notification--inject-234"><path d="M389.4,227.28,387.18,226h0a3.78,3.78,0,0,0-3.76.39,11.8,11.8,0,0,0-5.35,9.27,3.75,3.75,0,0,0,1.56,3.46h0l2,1.16.48-.79a5.38,5.38,0,0,0,1.53-.6A11.86,11.86,0,0,0,389,229.6a5.77,5.77,0,0,0-.17-1.37Z" style="fill:#f28f8f"></path><path d="M378.25,233.84a8.63,8.63,0,0,0-.2,1.8,3.75,3.75,0,0,0,1.56,3.46h0l2,1.16.48-.79a5.38,5.38,0,0,0,1.53-.6,8.21,8.21,0,0,0,1.46-1.08Z" style="opacity:0.1"></path><path d="M385.51,227.58a11.84,11.84,0,0,0-5.36,9.27c0,3.41,2.4,4.8,5.36,3.09a11.85,11.85,0,0,0,5.35-9.27C390.86,227.26,388.46,225.87,385.51,227.58Z" style="fill:#ffa8a7"></path><path d="M387.62,232.33V231c0-1.49-.91-2.18-2-1.53h0a4.85,4.85,0,0,0-2,3.88v1.17a4.64,4.64,0,0,1-.69,2.29h0a1.33,1.33,0,0,0-.17.6h0c0,.38.23.55.52.39l4.74-2.74a1.23,1.23,0,0,0,.51-1h0a.45.45,0,0,0-.15-.39h0A1.39,1.39,0,0,1,387.62,232.33Z" style="fill:#fff"></path><path d="M386.56,236.29a2.35,2.35,0,0,1-1,1.87c-.54.31-1,0-1-.74Z" style="fill:#fff"></path></g></g></g><g id="freepik--Icons--inject-234"><g id="freepik--social-media-icon--inject-234"><path d="M103.88,311.56a2.09,2.09,0,0,0-2.15.2L77.09,326a6.64,6.64,0,0,0-3,5.2V359.4a2.1,2.1,0,0,0,.88,1.94c.54.32,6.43,3.68,7,4a2.1,2.1,0,0,0,2.13-.21l24.58-14.19a6.65,6.65,0,0,0,3-5.2l0-28.25a2.1,2.1,0,0,0-.87-1.94C110.29,315.23,104.4,311.88,103.88,311.56Z" style="fill:#00A0BC"></path><path d="M103.88,311.56a2.09,2.09,0,0,0-2.15.2L77.09,326a6.64,6.64,0,0,0-3,5.2V359.4a2.1,2.1,0,0,0,.88,1.94c.54.32,6.43,3.68,7,4a2.1,2.1,0,0,0,2.13-.21l24.58-14.19a6.65,6.65,0,0,0,3-5.2l0-28.25a2.1,2.1,0,0,0-.87-1.94C110.29,315.23,104.4,311.88,103.88,311.56Z" style="fill:#fff;opacity:0.4"></path><path d="M85.35,334.18,111.7,319v-1.47a2.1,2.1,0,0,0-.87-1.94c-.54-.32-6.43-3.67-7-4a2.09,2.09,0,0,0-2.15.2L77.09,326a6.21,6.21,0,0,0-2.1,2.21Z" style="fill:#fff;opacity:0.7000000000000001"></path><path d="M81.07,363.4V335.18a6.64,6.64,0,0,1,3-5.2l24.64-14.22c1.66-1,3-.18,3,1.73l0,28.25a6.65,6.65,0,0,1-3,5.2L84.07,365.13C82.41,366.09,81.07,365.31,81.07,363.4Z" style="fill:#00A0BC"></path><path d="M81.07,363.4V335.18a6.64,6.64,0,0,1,3-5.2l24.64-14.22c1.66-1,3-.18,3,1.73l0,28.25a6.65,6.65,0,0,1-3,5.2L84.07,365.13C82.41,366.09,81.07,365.31,81.07,363.4Z" style="fill:#fff;opacity:0.55"></path><path d="M101.55,342.88a27.14,27.14,0,0,0,2.36-11.21,20.9,20.9,0,0,0,1.94-3.8,13.73,13.73,0,0,1-2.23,2.11,10.25,10.25,0,0,0,1.7-3.86,15.59,15.59,0,0,1-2.46,2.69,2.36,2.36,0,0,0-2.84,0c-2.5,1.44-4.34,5.63-3.78,8.54-3.22,1.65-6.09,1.24-8-.79-1,2.91-.53,5.68,1.2,6.22a2.84,2.84,0,0,1-1.76.37c0,2.42,1.25,3.92,3.12,3.34a4.92,4.92,0,0,1-1.76,1.1,2.29,2.29,0,0,0,3.63,1.5,13.35,13.35,0,0,1-5.75,5.46,7.71,7.71,0,0,0,6-1.11c3.84-2.21,6.79-6.22,8.68-10.56" style="fill:#fff"></path></g><g id="freepik--social-media-icon--inject-234"><path d="M357.79,154.06a2.09,2.09,0,0,0-2.15.2L331,168.48a6.64,6.64,0,0,0-3,5.2V201.9a2.11,2.11,0,0,0,.88,1.94c.54.31,6.43,3.68,7,4a2.13,2.13,0,0,0,2.13-.21l24.58-14.19a6.67,6.67,0,0,0,3-5.2l.05-28.25a2.1,2.1,0,0,0-.87-1.94C364.2,157.73,358.31,154.38,357.79,154.06Z" style="fill:#00A0BC"></path><path d="M357.79,154.06a2.09,2.09,0,0,0-2.15.2L331,168.48a6.64,6.64,0,0,0-3,5.2V201.9a2.11,2.11,0,0,0,.88,1.94c.54.31,6.43,3.68,7,4a2.13,2.13,0,0,0,2.13-.21l24.58-14.19a6.67,6.67,0,0,0,3-5.2l.05-28.25a2.1,2.1,0,0,0-.87-1.94C364.2,157.73,358.31,154.38,357.79,154.06Z" style="fill:#fff;opacity:0.4"></path><path d="M339.26,176.67l26.35-15.21V160a2.1,2.1,0,0,0-.87-1.94c-.54-.32-6.43-3.67-6.95-4a2.09,2.09,0,0,0-2.15.2L331,168.48a6.13,6.13,0,0,0-2.1,2.21Z" style="fill:#fff;opacity:0.7000000000000001"></path><path d="M335,205.9V177.68a6.64,6.64,0,0,1,3-5.2l24.64-14.22c1.66-1,3-.19,3,1.73l-.05,28.25a6.67,6.67,0,0,1-3,5.2L338,207.63C336.32,208.59,335,207.81,335,205.9Z" style="fill:#00A0BC"></path><path d="M335,205.9V177.68a6.64,6.64,0,0,1,3-5.2l24.64-14.22c1.66-1,3-.19,3,1.73l-.05,28.25a6.67,6.67,0,0,1-3,5.2L338,207.63C336.32,208.59,335,207.81,335,205.9Z" style="fill:#fff;opacity:0.55"></path><path d="M347.83,198l3.94-2.28V182.57l2.75-1.59.29-4.57-3,1.76v-2.51c0-1,.16-1.54.91-2l2.13-1.23v-4.57l-2.73,1.57a8,8,0,0,0-4.25,7.48v3.51l-2.05,1.19v4.46l2.05-1.19Z" style="fill:#fff"></path></g><g id="freepik--social-media-icon--inject-234"><path d="M72,176.42a2.09,2.09,0,0,0-2.14.19L45.17,190.84a6.61,6.61,0,0,0-3,5.2v28.21a2.11,2.11,0,0,0,.88,1.95l7,4a2.1,2.1,0,0,0,2.13-.2l24.57-14.2a6.62,6.62,0,0,0,3-5.19l0-28.26a2.11,2.11,0,0,0-.87-1.94C78.36,180.09,72.48,176.74,72,176.42Z" style="fill:#00A0BC"></path><path d="M72,176.42a2.09,2.09,0,0,0-2.14.19L45.17,190.84a6.61,6.61,0,0,0-3,5.2v28.21a2.11,2.11,0,0,0,.88,1.95l7,4a2.1,2.1,0,0,0,2.13-.2l24.57-14.2a6.62,6.62,0,0,0,3-5.19l0-28.26a2.11,2.11,0,0,0-.87-1.94C78.36,180.09,72.48,176.74,72,176.42Z" style="fill:#fff;opacity:0.4"></path><path d="M53.43,199l26.35-15.21v-1.48a2.11,2.11,0,0,0-.87-1.94c-.55-.31-6.43-3.66-7-4a2.09,2.09,0,0,0-2.14.19L45.17,190.84a6.05,6.05,0,0,0-2.1,2.21Z" style="fill:#fff;opacity:0.7000000000000001"></path><path d="M49.14,228.25V200a6.62,6.62,0,0,1,3-5.19l24.64-14.23c1.65-1,3-.18,3,1.73l0,28.26a6.62,6.62,0,0,1-3,5.19L52.15,230C50.49,230.94,49.14,230.17,49.14,228.25Z" style="fill:#00A0BC"></path><path d="M49.14,228.25V200a6.62,6.62,0,0,1,3-5.19l24.64-14.23c1.65-1,3-.18,3,1.73l0,28.26a6.62,6.62,0,0,1-3,5.19L52.15,230C50.49,230.94,49.14,230.17,49.14,228.25Z" style="fill:#fff;opacity:0.55"></path><path d="M64.46,195.4c2.42-1.39,2.71-1.55,3.66-2a3.83,3.83,0,0,1,1.68-.55,1.4,1.4,0,0,1,1,.3,1.92,1.92,0,0,1,.68,1,6.86,6.86,0,0,1,.31,2.07c0,1.24.06,1.62.06,4.84s0,3.61-.06,4.91a11.2,11.2,0,0,1-.31,2.42,7.11,7.11,0,0,1-.68,1.78,6.62,6.62,0,0,1-1,1.51A7.88,7.88,0,0,1,68.12,213c-1,.61-1.24.79-3.66,2.18s-2.7,1.55-3.66,2.05a4.14,4.14,0,0,1-1.68.55,1.41,1.41,0,0,1-1-.3,2,2,0,0,1-.68-1,6.7,6.7,0,0,1-.31-2.06c0-1.25-.05-1.62-.05-4.85s0-3.61.05-4.9a11.42,11.42,0,0,1,.31-2.43,8.37,8.37,0,0,1,.68-1.78,6.88,6.88,0,0,1,1-1.5,8.16,8.16,0,0,1,1.68-1.39c1-.6,1.25-.78,3.66-2.18m0-2.17c-2.46,1.42-2.76,1.61-3.73,2.22a10.43,10.43,0,0,0-3.8,4.15,12.59,12.59,0,0,0-1,2.74,15.35,15.35,0,0,0-.42,3.18c0,1.31-.05,1.73-.05,5s0,3.68.05,4.94a9.18,9.18,0,0,0,.42,2.69,3.15,3.15,0,0,0,1,1.53,2.24,2.24,0,0,0,1.6.47,5.31,5.31,0,0,0,2.2-.71c1-.5,1.27-.66,3.73-2.08s2.77-1.61,3.74-2.23a10.22,10.22,0,0,0,2.19-1.83A10.38,10.38,0,0,0,72,211a11.88,11.88,0,0,0,1-2.74,14.51,14.51,0,0,0,.42-3.17c.05-1.31.06-1.73.06-5s0-3.68-.06-4.94a8.85,8.85,0,0,0-.42-2.69,3.09,3.09,0,0,0-1-1.54,2.26,2.26,0,0,0-1.61-.46,5.43,5.43,0,0,0-2.19.7c-1,.5-1.28.67-3.74,2.09" style="fill:#fff"></path><path d="M64.46,199.1c-2.57,1.48-4.65,5.46-4.65,8.88s2.08,5,4.65,3.52,4.65-5.46,4.65-8.89-2.08-5-4.65-3.51m0,10.22c-1.66,1-3-.06-3-2.28a7.27,7.27,0,0,1,3-5.77c1.67-1,3,.06,3,2.29a7.21,7.21,0,0,1-3,5.76" style="fill:#fff"></path><path d="M68.34,196.78c0,.8.49,1.16,1.09.82a2.62,2.62,0,0,0,1.09-2.08c0-.8-.49-1.17-1.09-.82a2.62,2.62,0,0,0-1.09,2.08" style="fill:#fff"></path></g><g id="freepik--notification--inject-234"><path d="M151.63,267.62l-5.07-2.93h0l-.05,0h0c-2.21-1.25-5.25-1.06-8.6.87-6.76,3.9-12.23,13.39-12.23,21.19,0,3.89,1.36,6.63,3.57,7.91h0l4.62,2.65,1.08-1.81a12.63,12.63,0,0,0,3.51-1.37c6.75-3.9,12.23-13.38,12.23-21.18a13.62,13.62,0,0,0-.38-3.13Z" style="fill:#00A0BC"></path><path d="M151.63,267.62l-5.07-2.93h0l-.05,0h0c-2.21-1.25-5.25-1.06-8.6.87-6.76,3.9-12.23,13.39-12.23,21.19,0,3.89,1.36,6.63,3.57,7.91h0l4.62,2.65,1.08-1.81a12.63,12.63,0,0,0,3.51-1.37c6.75-3.9,12.23-13.38,12.23-21.18a13.62,13.62,0,0,0-.38-3.13Z" style="fill:#fff;opacity:0.24"></path><path d="M126.14,282.62a19.68,19.68,0,0,0-.46,4.11c0,3.89,1.36,6.63,3.57,7.91h0l4.62,2.65,1.08-1.81a12.63,12.63,0,0,0,3.51-1.37,19.43,19.43,0,0,0,3.33-2.46Z" style="fill:#00A0BC"></path><path d="M126.14,282.62a19.68,19.68,0,0,0-.46,4.11c0,3.89,1.36,6.63,3.57,7.91h0l4.62,2.65,1.08-1.81a12.63,12.63,0,0,0,3.51-1.37,19.43,19.43,0,0,0,3.33-2.46Z" style="opacity:0.15"></path><path d="M142.72,268.32c-6.75,3.9-12.23,13.38-12.23,21.19s5.48,11,12.23,7.06S155,283.18,155,275.38,149.48,264.42,142.72,268.32Z" style="fill:#00A0BC"></path><path d="M147.56,279.18v-3c0-3.42-2.08-5-4.65-3.51h0c-2.56,1.48-4.64,5.45-4.64,8.87v2.68a10.66,10.66,0,0,1-1.56,5.23v0a2.94,2.94,0,0,0-.38,1.37h0c0,.86.52,1.25,1.17.88l10.85-6.26a2.84,2.84,0,0,0,1.17-2.24h0a1.07,1.07,0,0,0-.35-.9h0A3.18,3.18,0,0,1,147.56,279.18Z" style="fill:#fff"></path><path d="M145.14,288.23a5.34,5.34,0,0,1-2.23,4.26c-1.23.71-2.23-.05-2.23-1.69Z" style="fill:#fff"></path></g></g><g id="freepik--Stars--inject-234"><g id="freepik--stars--inject-234"><path d="M471.65,68.87c0,2.39,3.71,2.39,3.68,0S471.61,66.49,471.65,68.87Z" style="fill:#e0e0e0"></path><path d="M453.1,87.89l3.61,1.25c1.31,5.07,1,5,4.08.78,5.3.3,5.07.66,2-3.64,1.91-4.94,2.19-4.61-2.85-3-4.11-3.35-3.71-3.51-3.76,1.76C456,85.42,451.72,87.21,453.1,87.89Z" style="fill:#e0e0e0"></path></g></g><g id="freepik--Moon--inject-234"><path id="freepik--moon--inject-234" d="M457.94,52.74v.12a25.21,25.21,0,1,1-24.11-27.65,19.9,19.9,0,1,0,24.12,27.53Z" style="fill:#e0e0e0"></path></g></svg>